<svg xmlns="http://www.w3.org/2000/svg" width="160" height="160" viewBox="0 0 160 160">
  <defs>
    <style>
      .cls-1 {
        fill: #f6f1f0;
        fill-rule: evenodd;
        opacity: 0.5;
      }
    </style>
  </defs>
  <path id="Shape_683_copy" data-name="Shape 683 copy" class="cls-1" d="M9164.67,2127.2a0.97,0.97,0,0,1-.17-0.01,1.658,1.658,0,0,1-1.49-1.81l2.78-26.49a1.664,1.664,0,0,1,3.31.34l-2.77,26.49A1.667,1.667,0,0,1,9164.67,2127.2Zm-6.67,64h-0.04a1.647,1.647,0,0,1-1.62-1.69,13.787,13.787,0,0,0-.83-4.13c-0.15-.48-0.3-0.95-0.42-1.42a35.723,35.723,0,0,1-.87-9.9,34.637,34.637,0,0,0-.62-8.4,1.67,1.67,0,0,1,3.25-.77,37.841,37.841,0,0,1,.7,9.19,32.806,32.806,0,0,0,.76,9.02c0.11,0.43.25,0.87,0.38,1.31a16.333,16.333,0,0,1,.98,5.18A1.654,1.654,0,0,1,9158,2191.2Zm-76.66,3.31a1.774,1.774,0,0,1-.56-0.09,1.656,1.656,0,0,1-1.01-2.12l8.33-23.17a1.67,1.67,0,0,1,2.13-1,1.641,1.641,0,0,1,1.01,2.11l-8.33,23.18A1.68,1.68,0,0,1,9081.34,2194.51Zm114.44-46.34a1.63,1.63,0,0,1-.92-0.28c-0.86-.57-1.72-1.12-2.59-1.68-1.93-1.23-3.92-2.51-5.8-3.92-0.72-.54-1.43-1.09-2.15-1.64-3.54-2.74-6.88-5.33-11.14-6.32a1.654,1.654,0,1,1,.76-3.22c4.97,1.16,8.76,4.09,12.43,6.93,0.7,0.54,1.39,1.08,2.1,1.61,1.79,1.33,3.73,2.58,5.61,3.78,0.88,0.57,1.76,1.13,2.62,1.71a1.64,1.64,0,0,1,.47,2.29A1.667,1.667,0,0,1,9195.78,2148.17Zm-25.55,26.48h-0.09a1.657,1.657,0,0,1-1.58-1.74l1.11-22.07a1.691,1.691,0,0,1,1.75-1.57,1.664,1.664,0,0,1,1.58,1.74l-1.11,22.07A1.665,1.665,0,0,1,9170.23,2174.65Zm-22.78-38.62a1.709,1.709,0,0,1-.31-0.03,1.652,1.652,0,0,1-1.33-1.93c0.8-4.33.39-8.62-.06-13.17a78.7,78.7,0,0,1-.52-8.62,1.656,1.656,0,0,1,1.66-1.63h0.02a1.662,1.662,0,0,1,1.65,1.67,76.142,76.142,0,0,0,.51,8.26c0.44,4.57.91,9.3,0.02,14.09A1.669,1.669,0,0,1,9147.45,2136.03Zm63.33-3.31a1.659,1.659,0,0,1-.88-3.07,105.561,105.561,0,0,1,20.89-10.08,1.657,1.657,0,1,1,1.09,3.13,101.461,101.461,0,0,0-20.23,9.77A1.623,1.623,0,0,1,9210.78,2132.72Zm1.11,94.9a1.718,1.718,0,0,1-.69-0.15,1.652,1.652,0,0,1-.83-2.19c2.35-5.15,6.08-9.19,9.69-13.09a82.709,82.709,0,0,0,6.04-7.06,1.672,1.672,0,0,1,2.32-.37,1.644,1.644,0,0,1,.38,2.31,84.568,84.568,0,0,1-6.29,7.36c-3.58,3.88-6.97,7.55-9.1,12.22A1.674,1.674,0,0,1,9211.89,2227.62Zm-10-1.1a1.659,1.659,0,0,1-1.58-1.15c-2.73-8.33-5.73-14.3-9.73-19.35a1.644,1.644,0,0,1,.28-2.32,1.677,1.677,0,0,1,2.34.27c4.2,5.3,7.46,11.78,10.28,20.38a1.668,1.668,0,0,1-1.07,2.09A1.934,1.934,0,0,1,9201.89,2226.52Zm14.45-111.46h-0.1a1.664,1.664,0,0,1-1.57-1.75l1.11-18.76a1.668,1.668,0,0,1,3.33.2l-1.11,18.76A1.662,1.662,0,0,1,9216.34,2115.06Zm-3.89,93.8a1.662,1.662,0,0,1-1.47-.87,45.664,45.664,0,0,1-3.34-8.74,36.024,36.024,0,0,0-3.82-9.36,1.64,1.64,0,0,1,.5-2.28,1.673,1.673,0,0,1,2.31.49,38.987,38.987,0,0,1,4.2,10.2,43.016,43.016,0,0,0,3.08,8.12,1.645,1.645,0,0,1-.67,2.24A1.6,1.6,0,0,1,9212.45,2208.86Zm-71.67,8.83a1.7,1.7,0,0,1-1.43-.8c-3.57-5.9-9.48-8.71-15.74-11.69l-0.77-.37a1.638,1.638,0,0,1-.78-2.2,1.661,1.661,0,0,1,2.22-.78l0.77,0.37c6.43,3.05,13.07,6.21,17.16,12.96a1.65,1.65,0,0,1-.57,2.27A1.7,1.7,0,0,1,9140.78,2217.69Zm14.44,33.66a1.612,1.612,0,0,1-.79-0.21,1.642,1.642,0,0,1-.67-2.24,173.944,173.944,0,0,1,11.22-18.38,1.675,1.675,0,0,1,2.33-.38,1.65,1.65,0,0,1,.38,2.31,172.189,172.189,0,0,0-11,18.03A1.682,1.682,0,0,1,9155.22,2251.35Zm-12.77-16.56a1.74,1.74,0,0,1-.45-0.06c-2.63-.73-4.25-2.57-5.68-4.18a21.277,21.277,0,0,0-1.64-1.74c-0.83-.76-1.62-1.54-2.42-2.33-2.55-2.52-4.96-4.89-8.19-6.15a1.653,1.653,0,1,1,1.2-3.08c3.89,1.5,6.66,4.24,9.34,6.88,0.77,0.76,1.53,1.52,2.33,2.24,0.69,0.64,1.3,1.33,1.89,1.99,1.29,1.46,2.4,2.72,4.07,3.18a1.666,1.666,0,0,1,1.15,2.05A1.647,1.647,0,0,1,9142.45,2234.79Zm2.22-78.35a1.654,1.654,0,0,1-.45-3.25c0.71-.19.96-0.64,1.47-1.88a9.853,9.853,0,0,1,.94-1.86,33.156,33.156,0,0,0,2.32-4.31c1.39-2.96,2.84-6.01,5.83-8.23a1.675,1.675,0,0,1,2.34.34,1.638,1.638,0,0,1-.34,2.31c-2.33,1.73-3.54,4.28-4.82,6.99a34.432,34.432,0,0,1-2.57,4.76,7.165,7.165,0,0,0-.62,1.27c-0.56,1.33-1.32,3.16-3.65,3.8A1.74,1.74,0,0,1,9144.67,2156.44Zm30.55,46.35a1.691,1.691,0,0,1-.97-0.31,1.643,1.643,0,0,1-.38-2.31c1.36-1.88,2.84-3.68,4.27-5.43,3.03-3.7,5.89-7.19,7.79-11.39a1.665,1.665,0,0,1,3.04,1.36c-2.08,4.6-5.22,8.42-8.25,12.12-1.39,1.71-2.84,3.48-4.14,5.27A1.682,1.682,0,0,1,9175.22,2202.79Zm-69.44-11.59a1.65,1.65,0,0,1-.87-3.06l17.22-10.49a1.677,1.677,0,0,1,2.29.55,1.65,1.65,0,0,1-.55,2.28l-17.22,10.48A1.612,1.612,0,0,1,9105.78,2191.2Zm112.78,52.97a1.556,1.556,0,0,1-.6-0.11,1.656,1.656,0,0,1-.96-2.14c1.83-4.69,4.88-8.5,7.83-12.18,1.37-1.71,2.78-3.47,4.02-5.26a1.669,1.669,0,0,1,2.32-.43,1.646,1.646,0,0,1,.43,2.3c-1.31,1.89-2.76,3.7-4.16,5.45-2.92,3.65-5.69,7.1-7.33,11.31A1.65,1.65,0,0,1,9218.56,2244.17Zm-28.33,8.83a1.628,1.628,0,0,1-.31-0.03c-0.25-.04-0.5-0.06-0.73-0.08a5.921,5.921,0,0,1-3.43-1.22c-2.96-2.32-6.22-4.42-9.38-6.45-1.25-.8-2.51-1.61-3.75-2.43a1.657,1.657,0,1,1,1.85-2.75q1.845,1.215,3.71,2.4c3.22,2.07,6.55,4.22,9.63,6.62a2.637,2.637,0,0,0,1.66.53,10.024,10.024,0,0,1,1.05.13A1.653,1.653,0,0,1,9190.23,2253Zm22.77-92.69h-0.05a1.663,1.663,0,0,1-1.61-1.71l0.55-16.56a1.666,1.666,0,0,1,3.33.11l-0.55,16.56A1.666,1.666,0,0,1,9213,2160.31Zm-97.22-9.38a1.656,1.656,0,0,1-.33-3.28c2.04-.41,4.02-1.01,6.12-1.64a42.131,42.131,0,0,1,10.82-2.25,1.651,1.651,0,1,1,.12,3.3,39.406,39.406,0,0,0-9.97,2.12,65.879,65.879,0,0,1-6.43,1.71A1.242,1.242,0,0,1,9115.78,2150.93Zm36.67,70.07a1.6,1.6,0,0,1-.53-0.09,1.641,1.641,0,0,1-1.05-2.09l0.36-1.1c1.77-5.27,3.59-10.72,6.43-15.74a1.669,1.669,0,0,1,2.27-.63,1.651,1.651,0,0,1,.64,2.25c-2.69,4.75-4.46,10.04-6.17,15.16l-0.37,1.11A1.673,1.673,0,0,1,9152.45,2221Zm33.33-105.38a1.668,1.668,0,0,1-1.35-2.63,65.961,65.961,0,0,0,3.87-6.29c2.07-3.64,4.2-7.4,7.44-10.49a1.669,1.669,0,0,1,2.35.05,1.648,1.648,0,0,1-.04,2.34c-2.89,2.75-4.81,6.14-6.84,9.73a69.555,69.555,0,0,1-4.08,6.6A1.65,1.65,0,0,1,9185.78,2115.62ZM9138,2166.38a1.672,1.672,0,0,1-.93-0.29,49.389,49.389,0,0,0-16.13-7.49,1.639,1.639,0,0,1-1.22-1.99,1.66,1.66,0,0,1,2.01-1.22,52.493,52.493,0,0,1,17.21,7.96,1.646,1.646,0,0,1,.44,2.3A1.664,1.664,0,0,1,9138,2166.38Zm-6.66-31.45a1.6,1.6,0,0,1-.53-0.09l-0.85-.28c-5.02-1.67-10.21-3.39-15.5-4.06a1.653,1.653,0,1,1,.42-3.28c5.62,0.71,10.96,2.48,16.13,4.2l0.85,0.28a1.651,1.651,0,0,1,1.06,2.09A1.678,1.678,0,0,1,9131.34,2134.93Zm53.89,96a1.676,1.676,0,0,1-1.48-.88c-2.75-5.17-6.15-11.01-11.7-14.87a1.634,1.634,0,0,1-.41-2.3,1.674,1.674,0,0,1,2.32-.41c6.16,4.28,9.81,10.52,12.74,16.03A1.66,1.66,0,0,1,9185.23,2230.93Zm-72.78,12.14a1.67,1.67,0,0,1-1.67-1.62c-0.09-3.69,1.08-6.99,2.21-10.18a38.841,38.841,0,0,0,1.71-5.63,1.667,1.667,0,0,1,3.27.65,44.724,44.724,0,0,1-1.83,6.09c-1.08,3.03-2.1,5.9-2.03,8.99a1.656,1.656,0,0,1-1.62,1.7h-0.04Zm97.22-68.42a1.651,1.651,0,0,1-.89-3.05l15-9.38a1.659,1.659,0,1,1,1.78,2.8l-15,9.38A1.716,1.716,0,0,1,9209.67,2174.65ZM9088,2237.55a1.667,1.667,0,0,1-1.18-.49c-0.72-.72-1.45-1.44-2.18-2.16a112.161,112.161,0,0,1-11.31-12.36,1.652,1.652,0,0,1,.35-2.32,1.681,1.681,0,0,1,2.33.34,107.673,107.673,0,0,0,10.98,11.99c0.73,0.73,1.47,1.45,2.19,2.18a1.648,1.648,0,0,1,0,2.34A1.681,1.681,0,0,1,9088,2237.55Zm97.78-60.69a1.655,1.655,0,0,1-1.15-2.85l12.77-12.14a1.681,1.681,0,0,1,2.36.05,1.639,1.639,0,0,1-.05,2.34l-12.78,12.14A1.651,1.651,0,0,1,9185.78,2176.86Zm-85-11.04a1.32,1.32,0,0,1-.28-0.02,1.653,1.653,0,0,1-1.36-1.91l2.22-12.69a1.669,1.669,0,0,1,3.29.56l-2.23,12.69A1.653,1.653,0,0,1,9100.78,2165.82Zm6.67,51.32a1.68,1.68,0,0,1-1.02-.35l-12.22-9.38a1.638,1.638,0,0,1-.3-2.32,1.668,1.668,0,0,1,2.33-.3l12.23,9.38A1.659,1.659,0,0,1,9107.45,2217.14Zm94.99,35.86a1.65,1.65,0,0,1-1.64-1.43l-1.67-12.14a1.665,1.665,0,0,1,3.3-.45l1.67,12.14a1.672,1.672,0,0,1-1.43,1.87A1.77,1.77,0,0,1,9202.44,2253Zm28.89-58.49a1.658,1.658,0,0,1-1.63-1.35,8.8,8.8,0,0,1-.13-1.11,2.126,2.126,0,0,0-.49-1.53,16.345,16.345,0,0,0-2.7-2.31c-1.92-1.41-4.09-3.02-4.97-5.9a1.657,1.657,0,0,1,1.11-2.07,1.682,1.682,0,0,1,2.08,1.1c0.56,1.85,2.04,2.94,3.76,4.21a19.5,19.5,0,0,1,3.26,2.82,5.274,5.274,0,0,1,1.28,3.46,6.206,6.206,0,0,0,.07.73,1.657,1.657,0,0,1-1.33,1.93A1.615,1.615,0,0,1,9231.33,2194.51Zm-143.32,27.04a1.67,1.67,0,0,1-1.53-.98,17.338,17.338,0,0,1-1.18-6.96,17.73,17.73,0,0,0-.56-4.81,1.655,1.655,0,0,1,1.1-2.07,1.675,1.675,0,0,1,2.09,1.09,20.507,20.507,0,0,1,.7,5.7,14.746,14.746,0,0,0,.89,5.7,1.65,1.65,0,0,1-.83,2.19A1.88,1.88,0,0,1,9088.01,2221.55Zm36.66,31.45h-0.08a1.657,1.657,0,0,1-1.58-1.74l0.55-11.03a1.684,1.684,0,0,1,1.75-1.57,1.649,1.649,0,0,1,1.58,1.73l-0.56,11.04A1.659,1.659,0,0,1,9124.67,2253Zm6.11-57.38a1.66,1.66,0,0,1-1.18-2.83l10.56-10.48a1.66,1.66,0,0,1,2.35,0,1.63,1.63,0,0,1,0,2.34l-10.55,10.48A1.65,1.65,0,0,1,9130.78,2195.62Zm63.89-66.21a1.661,1.661,0,0,1-1.66-1.54c-0.31-4.2,2.18-6.65,4.37-8.82a24.938,24.938,0,0,0,2.08-2.23,1.659,1.659,0,0,1,2.64,2.01,25.321,25.321,0,0,1-2.37,2.57c-1.93,1.9-3.59,3.55-3.4,6.24a1.649,1.649,0,0,1-1.54,1.76A0.487,0.487,0,0,1,9194.67,2129.41ZM9096.89,2253a1.657,1.657,0,0,1-1.65-1.47l-1.11-9.93a1.647,1.647,0,0,1,1.47-1.83,1.676,1.676,0,0,1,1.84,1.46l1.11,9.93a1.661,1.661,0,0,1-1.47,1.83A1.275,1.275,0,0,1,9096.89,2253Zm15-78.35a1.649,1.649,0,0,1-1.65-1.47l-1.12-9.93a1.67,1.67,0,0,1,3.32-.37l1.11,9.93a1.661,1.661,0,0,1-1.47,1.83A1.275,1.275,0,0,1,9111.89,2174.65Zm23.89-53.52a1.642,1.642,0,0,1-1.24-.55,12.532,12.532,0,0,1-1.84-2.96c-0.89-1.77-1.46-2.79-2.9-3.16a1.656,1.656,0,1,1,.85-3.2c2.97,0.77,4.11,3.05,5.03,4.89a10.053,10.053,0,0,0,1.34,2.23,1.63,1.63,0,0,1-.13,2.33A1.672,1.672,0,0,1,9135.78,2121.13Z" transform="translate(-9073 -2093)"/>
</svg>
