<svg xmlns="http://www.w3.org/2000/svg" width="24" height="24" viewBox="0 0 24 24">
  <defs>
    <style>
      .cls-1 {
        fill: #26201f;
        fill-rule: evenodd;
      }
    </style>
  </defs>
  <path id="Rounded_Rectangle_522" data-name="Rounded Rectangle 522" class="cls-1" d="M3925,7180h14a5,5,0,0,1,5,5v14a5,5,0,0,1-5,5h-14a5,5,0,0,1-5-5v-14A5,5,0,0,1,3925,7180Zm7,7a5,5,0,1,0,5,5A5,5,0,0,0,3932,7187Zm5.5-2a1.5,1.5,0,1,0,1.5,1.5A1.5,1.5,0,0,0,3937.5,7185Zm-5.5,9.99a2.99,2.99,0,1,1,2.99-2.99A2.992,2.992,0,0,1,3932,7194.99Z" transform="translate(-3920 -7180)"/>
</svg>
