<svg xmlns="http://www.w3.org/2000/svg" width="160" height="160" viewBox="0 0 160 160">
  <defs>
    <style>
      .cls-1 {
        fill: #f7f1f0;
        fill-rule: evenodd;
      }
    </style>
  </defs>
  <path id="Shape_683_copy_2" data-name="Shape 683 copy 2" class="cls-1" d="M1250.67,649.2a1.385,1.385,0,0,1-.17-0.01,1.662,1.662,0,0,1-1.49-1.817l2.78-26.484a1.664,1.664,0,0,1,3.31.343l-2.77,26.484A1.67,1.67,0,0,1,1250.67,649.2Zm-6.67,64h-0.04a1.65,1.65,0,0,1-1.62-1.694,13.7,13.7,0,0,0-.83-4.126c-0.15-.48-0.3-0.955-0.42-1.419a35.792,35.792,0,0,1-.87-9.906,34.646,34.646,0,0,0-.62-8.4,1.67,1.67,0,0,1,3.25-.769,37.849,37.849,0,0,1,.7,9.192,33.218,33.218,0,0,0,.75,9.02c0.12,0.431.26,0.869,0.39,1.314a16.307,16.307,0,0,1,.98,5.175A1.659,1.659,0,0,1,1244,713.2Zm-76.66,3.311a1.674,1.674,0,0,1-.56-0.1,1.651,1.651,0,0,1-1.01-2.116l8.33-23.174a1.677,1.677,0,0,1,2.13-1,1.653,1.653,0,0,1,1.01,2.118l-8.33,23.173A1.678,1.678,0,0,1,1167.34,716.515Zm114.44-46.347a1.635,1.635,0,0,1-.92-0.278c-0.86-.567-1.72-1.121-2.59-1.676-1.93-1.237-3.92-2.516-5.8-3.924-0.72-.538-1.44-1.089-2.15-1.639-3.54-2.741-6.88-5.328-11.14-6.32a1.656,1.656,0,1,1,.76-3.224c4.97,1.159,8.76,4.094,12.43,6.932,0.7,0.539,1.39,1.078,2.1,1.606,1.79,1.338,3.73,2.583,5.61,3.789,0.88,0.563,1.76,1.126,2.62,1.7a1.647,1.647,0,0,1,.47,2.3A1.669,1.669,0,0,1,1281.78,670.168Zm-25.55,26.484-0.09,0a1.655,1.655,0,0,1-1.58-1.736l1.11-22.07a1.686,1.686,0,0,1,1.75-1.57,1.655,1.655,0,0,1,1.58,1.736l-1.11,22.07A1.663,1.663,0,0,1,1256.23,696.652Zm-22.78-38.622a1.794,1.794,0,0,1-.31-0.028,1.654,1.654,0,0,1-1.33-1.928c0.8-4.336.38-8.627-.06-13.17a81.4,81.4,0,0,1-.53-8.619,1.672,1.672,0,0,1,1.67-1.636h0.02a1.665,1.665,0,0,1,1.65,1.675,76.139,76.139,0,0,0,.51,8.259c0.44,4.571.91,9.3,0.02,14.092A1.668,1.668,0,0,1,1233.45,658.03Zm63.33-3.311a1.673,1.673,0,0,1-1.42-.786,1.653,1.653,0,0,1,.54-2.278,104.958,104.958,0,0,1,20.89-10.088,1.67,1.67,0,0,1,2.12,1.028,1.649,1.649,0,0,1-1.03,2.1,101.445,101.445,0,0,0-20.23,9.775A1.645,1.645,0,0,1,1296.78,654.719Zm1.11,94.9a1.715,1.715,0,0,1-.69-0.148,1.656,1.656,0,0,1-.83-2.19c2.35-5.152,6.08-9.189,9.69-13.094a82.81,82.81,0,0,0,6.04-7.056,1.665,1.665,0,0,1,2.32-.371,1.644,1.644,0,0,1,.38,2.31,83.5,83.5,0,0,1-6.29,7.357c-3.58,3.882-6.97,7.55-9.1,12.219A1.674,1.674,0,0,1,1297.89,749.62Zm-10-1.1a1.654,1.654,0,0,1-1.58-1.143c-2.73-8.332-5.73-14.3-9.73-19.353a1.648,1.648,0,0,1,.28-2.323,1.671,1.671,0,0,1,2.34.278c4.2,5.3,7.46,11.772,10.28,20.374a1.662,1.662,0,0,1-1.07,2.087A1.788,1.788,0,0,1,1287.89,748.516Zm14.45-111.453c-0.04,0-.07,0-0.1,0a1.664,1.664,0,0,1-1.57-1.749l1.11-18.759a1.668,1.668,0,0,1,3.33.194L1304,635.505A1.662,1.662,0,0,1,1302.34,637.063Zm-3.89,93.8a1.672,1.672,0,0,1-1.47-.866,45.943,45.943,0,0,1-3.34-8.74,35.924,35.924,0,0,0-3.82-9.362,1.648,1.648,0,0,1,.5-2.286,1.68,1.68,0,0,1,2.31.5,39.267,39.267,0,0,1,4.2,10.192,42.741,42.741,0,0,0,3.08,8.121A1.657,1.657,0,0,1,1298.45,730.86Zm-71.67,8.828a1.684,1.684,0,0,1-1.43-.8c-3.57-5.895-9.48-8.707-15.74-11.685l-0.77-.367a1.649,1.649,0,0,1-.78-2.209,1.669,1.669,0,0,1,2.22-.776l0.77,0.368c6.43,3.056,13.07,6.217,17.16,12.962a1.651,1.651,0,0,1-.57,2.271A1.682,1.682,0,0,1,1226.78,739.688Zm14.44,33.657a1.661,1.661,0,0,1-1.46-2.448,174.966,174.966,0,0,1,11.22-18.38,1.679,1.679,0,0,1,2.33-.38,1.651,1.651,0,0,1,.38,2.309,171.948,171.948,0,0,0-11,18.036A1.672,1.672,0,0,1,1241.22,773.345Zm-12.77-16.552a1.661,1.661,0,0,1-.45-0.062c-2.63-.734-4.25-2.566-5.68-4.185a22.123,22.123,0,0,0-1.64-1.74c-0.83-.754-1.62-1.54-2.42-2.327-2.55-2.516-4.96-4.892-8.2-6.145a1.656,1.656,0,1,1,1.21-3.084c3.89,1.5,6.66,4.237,9.34,6.881,0.77,0.757,1.53,1.515,2.33,2.242a26.189,26.189,0,0,1,1.89,1.99c1.29,1.456,2.4,2.713,4.07,3.18A1.655,1.655,0,0,1,1228.45,756.793Zm2.22-78.349a1.654,1.654,0,0,1-.45-3.25c0.71-.195.96-0.645,1.47-1.885a9.84,9.84,0,0,1,.94-1.858,31.785,31.785,0,0,0,2.31-4.315c1.4-2.952,2.85-6,5.84-8.225a1.681,1.681,0,0,1,2.34.334,1.647,1.647,0,0,1-.34,2.317c-2.33,1.727-3.54,4.281-4.82,6.983a34.055,34.055,0,0,1-2.57,4.762,7.256,7.256,0,0,0-.62,1.269c-0.56,1.335-1.32,3.164-3.65,3.808A1.7,1.7,0,0,1,1230.67,678.444Zm30.55,46.347a1.7,1.7,0,0,1-.97-0.311,1.643,1.643,0,0,1-.38-2.31c1.36-1.876,2.84-3.682,4.27-5.429,3.03-3.7,5.89-7.188,7.79-11.387a1.664,1.664,0,0,1,3.04,1.356c-2.08,4.6-5.22,8.421-8.25,12.12-1.39,1.709-2.84,3.476-4.14,5.272A1.681,1.681,0,0,1,1261.22,724.791ZM1191.78,713.2a1.654,1.654,0,0,1-.87-3.067l17.22-10.483a1.671,1.671,0,0,1,2.29.546,1.639,1.639,0,0,1-.55,2.278l-17.22,10.483A1.66,1.66,0,0,1,1191.78,713.2Zm112.78,52.969a1.667,1.667,0,0,1-1.56-2.254c1.83-4.686,4.88-8.5,7.83-12.183,1.37-1.7,2.78-3.464,4.02-5.26a1.679,1.679,0,0,1,2.32-.429,1.648,1.648,0,0,1,.43,2.3c-1.31,1.893-2.76,3.7-4.16,5.448-2.92,3.652-5.69,7.1-7.33,11.317A1.655,1.655,0,0,1,1304.56,766.173ZM1276.23,775a1.625,1.625,0,0,1-.31-0.028c-0.25-.046-0.5-0.066-0.74-0.086a5.888,5.888,0,0,1-3.42-1.22c-2.96-2.315-6.22-4.414-9.38-6.443-1.25-.8-2.51-1.611-3.75-2.433a1.653,1.653,0,0,1-.46-2.295,1.672,1.672,0,0,1,2.31-.459c1.23,0.813,2.47,1.61,3.71,2.408,3.22,2.07,6.55,4.211,9.63,6.621a2.626,2.626,0,0,0,1.66.523c0.34,0.031.69,0.063,1.05,0.13A1.654,1.654,0,0,1,1276.23,775ZM1299,682.307h-0.05a1.66,1.66,0,0,1-1.61-1.71l0.55-16.552a1.666,1.666,0,0,1,3.33.11l-0.55,16.552A1.663,1.663,0,0,1,1299,682.307Zm-97.22-9.38a1.655,1.655,0,0,1-.33-3.278c2.05-.408,4.02-1.006,6.12-1.639a42.431,42.431,0,0,1,10.82-2.255,1.655,1.655,0,1,1,.12,3.308,39.349,39.349,0,0,0-9.97,2.114c-2.08.629-4.23,1.279-6.43,1.718A1.757,1.757,0,0,1,1201.78,672.927ZM1238.45,743a1.658,1.658,0,0,1-1.58-2.178l0.36-1.1c1.77-5.267,3.59-10.714,6.43-15.738a1.671,1.671,0,0,1,2.27-.631,1.655,1.655,0,0,1,.64,2.255c-2.69,4.745-4.46,10.039-6.17,15.158l-0.37,1.105A1.661,1.661,0,0,1,1238.45,743Zm33.33-105.384a1.657,1.657,0,0,1-1.35-2.622,65.836,65.836,0,0,0,3.87-6.29c2.07-3.639,4.2-7.4,7.44-10.489a1.666,1.666,0,0,1,2.35.047,1.648,1.648,0,0,1-.04,2.34c-2.89,2.749-4.81,6.139-6.84,9.726a69.039,69.039,0,0,1-4.08,6.6A1.649,1.649,0,0,1,1271.78,637.615ZM1224,688.376a1.65,1.65,0,0,1-.93-0.284,49.11,49.11,0,0,0-16.13-7.487,1.651,1.651,0,0,1-1.22-2,1.668,1.668,0,0,1,2.01-1.22,52.4,52.4,0,0,1,17.21,7.963A1.656,1.656,0,0,1,1224,688.376Zm-6.66-31.45a1.67,1.67,0,0,1-.53-0.084l-0.85-.284c-5.02-1.663-10.21-3.383-15.5-4.06a1.655,1.655,0,1,1,.42-3.283c5.62,0.717,10.96,2.489,16.13,4.2l0.85,0.283a1.651,1.651,0,0,1,1.06,2.093A1.68,1.68,0,0,1,1217.34,656.926Zm53.89,96a1.674,1.674,0,0,1-1.48-.882c-2.75-5.17-6.15-11.008-11.7-14.865a1.641,1.641,0,0,1-.41-2.3,1.669,1.669,0,0,1,2.32-.409c6.16,4.282,9.81,10.521,12.74,16.033A1.661,1.661,0,0,1,1271.23,752.93Zm-72.78,12.139a1.665,1.665,0,0,1-1.67-1.615c-0.09-3.7,1.08-6.992,2.21-10.18a39.323,39.323,0,0,0,1.71-5.632,1.666,1.666,0,0,1,3.27.644,44.052,44.052,0,0,1-1.83,6.09c-1.08,3.039-2.1,5.908-2.03,9a1.654,1.654,0,0,1-1.62,1.7h-0.04Zm97.22-68.417a1.655,1.655,0,0,1-.89-3.056l15-9.38a1.675,1.675,0,0,1,2.3.519,1.656,1.656,0,0,1-.52,2.283l-15,9.38A1.7,1.7,0,0,1,1295.67,696.652ZM1174,759.551a1.686,1.686,0,0,1-1.18-.488c-0.72-.723-1.45-1.443-2.18-2.164a112.182,112.182,0,0,1-11.31-12.362,1.648,1.648,0,0,1,.35-2.317,1.674,1.674,0,0,1,2.33.345,109,109,0,0,0,10.98,11.988c0.73,0.724,1.47,1.449,2.2,2.176a1.658,1.658,0,0,1-.01,2.341A1.678,1.678,0,0,1,1174,759.551Zm97.78-60.692a1.656,1.656,0,0,1-1.15-2.852l12.78-12.138a1.666,1.666,0,0,1,2.35.052,1.639,1.639,0,0,1-.05,2.34L1272.93,698.4A1.66,1.66,0,0,1,1271.78,698.859Zm-85-11.035a1.473,1.473,0,0,1-.28-0.025,1.653,1.653,0,0,1-1.36-1.913l2.22-12.691a1.669,1.669,0,0,1,3.29.567l-2.23,12.69A1.659,1.659,0,0,1,1186.78,687.824Zm6.67,51.313a1.651,1.651,0,0,1-1.02-.347l-12.22-9.379a1.639,1.639,0,0,1-.3-2.321,1.665,1.665,0,0,1,2.33-.3l12.23,9.38a1.648,1.648,0,0,1,.3,2.321A1.669,1.669,0,0,1,1193.45,739.137ZM1288.44,775a1.668,1.668,0,0,1-1.65-1.431l-1.66-12.139a1.665,1.665,0,0,1,3.3-.448l1.67,12.138a1.666,1.666,0,0,1-1.43,1.865A1.524,1.524,0,0,1,1288.44,775Zm28.89-58.485a1.663,1.663,0,0,1-1.63-1.352,8.762,8.762,0,0,1-.13-1.113,2.126,2.126,0,0,0-.49-1.532,16.16,16.16,0,0,0-2.71-2.308c-1.91-1.415-4.08-3.019-4.96-5.905a1.651,1.651,0,0,1,1.11-2.064,1.677,1.677,0,0,1,2.08,1.1c0.56,1.842,2.04,2.939,3.76,4.209a18.91,18.91,0,0,1,3.26,2.816,5.282,5.282,0,0,1,1.28,3.462,6.14,6.14,0,0,0,.07.726,1.656,1.656,0,0,1-1.33,1.93A1.71,1.71,0,0,1,1317.33,716.515ZM1174,743.551a1.675,1.675,0,0,1-1.52-.978,17.35,17.35,0,0,1-1.18-6.96,17.763,17.763,0,0,0-.56-4.815,1.654,1.654,0,0,1,1.1-2.07,1.671,1.671,0,0,1,2.09,1.091,20.548,20.548,0,0,1,.7,5.7,14.71,14.71,0,0,0,.89,5.7,1.645,1.645,0,0,1-.83,2.188A1.729,1.729,0,0,1,1174,743.551ZM1210.67,775l-0.08,0a1.655,1.655,0,0,1-1.58-1.736l0.55-11.035a1.688,1.688,0,0,1,1.75-1.57,1.655,1.655,0,0,1,1.58,1.736l-0.56,11.035A1.657,1.657,0,0,1,1210.67,775Zm6.11-57.382a1.674,1.674,0,0,1-1.18-.485,1.648,1.648,0,0,1,0-2.34l10.56-10.484a1.667,1.667,0,0,1,2.35,0,1.631,1.631,0,0,1,0,2.341l-10.55,10.483A1.674,1.674,0,0,1,1216.78,717.618Zm63.89-66.209a1.657,1.657,0,0,1-1.66-1.538c-0.31-4.2,2.18-6.656,4.37-8.821a23.928,23.928,0,0,0,2.08-2.235,1.665,1.665,0,0,1,2.33-.306,1.648,1.648,0,0,1,.31,2.32,25.416,25.416,0,0,1-2.37,2.569c-1.93,1.9-3.59,3.548-3.4,6.238a1.658,1.658,0,0,1-1.54,1.769C1280.75,651.407,1280.71,651.409,1280.67,651.409ZM1182.89,775a1.654,1.654,0,0,1-1.65-1.472l-1.11-9.931a1.648,1.648,0,0,1,1.47-1.829,1.677,1.677,0,0,1,1.84,1.462l1.11,9.932a1.661,1.661,0,0,1-1.47,1.828A1.865,1.865,0,0,1,1182.89,775Zm15-78.348a1.654,1.654,0,0,1-1.65-1.472l-1.12-9.932a1.67,1.67,0,0,1,3.32-.366l1.11,9.932a1.661,1.661,0,0,1-1.47,1.828A1.865,1.865,0,0,1,1197.89,696.652Zm23.89-53.52a1.657,1.657,0,0,1-1.24-.554,12.646,12.646,0,0,1-1.84-2.955c-0.89-1.772-1.46-2.792-2.9-3.165a1.657,1.657,0,1,1,.85-3.2c2.97,0.773,4.11,3.06,5.03,4.9a10.143,10.143,0,0,0,1.34,2.224,1.638,1.638,0,0,1-.13,2.337A1.666,1.666,0,0,1,1221.78,643.132Z" transform="translate(-1159 -615)"/>
</svg>
