<svg xmlns="http://www.w3.org/2000/svg" width="206" height="230" viewBox="0 0 206 230">
  <defs>
    <style>
      .cls-1 {
        fill: #d7cfcc;
        fill-rule: evenodd;
      }
    </style>
  </defs>
  <path id="Shape_764_copy_4" data-name="Shape 764 copy 4" class="cls-1" d="M5628.12,3921.03a1,1,0,0,0,.27-1.97l-18.05-5.01a1,1,0,0,0-.53,1.93l18.04,5.01A0.842,0.842,0,0,0,5628.12,3921.03Zm-32.08-1a1,1,0,0,0,.16-1.99l-18.04-3.01a1,1,0,0,0-.33,1.98l18.05,3A0.875,0.875,0,0,0,5596.04,3920.03Zm30.57,127.78a1.047,1.047,0,0,0,.3-0.05,1.012,1.012,0,0,0,.66-1.26c-0.68-2.16-2.45-2.8-3.88-3.32a7.677,7.677,0,0,1-1.58-.7,20.576,20.576,0,0,0-4.04-1.77c-2.23-.78-4.32-1.52-5.67-3.49a1,1,0,0,0-1.66,1.13c1.72,2.51,4.23,3.39,6.66,4.25a18.182,18.182,0,0,1,3.64,1.58,9.3,9.3,0,0,0,1.97.88c1.4,0.52,2.28.89,2.64,2.04A1.014,1.014,0,0,0,5626.61,4047.81Zm0-63.14a1.047,1.047,0,0,0,.3-0.05,1,1,0,0,0,.66-1.25c-0.68-2.17-2.45-2.81-3.87-3.33a8.355,8.355,0,0,1-1.59-.69,19.8,19.8,0,0,0-4.04-1.78c-2.22-.78-4.32-1.52-5.67-3.49a1,1,0,0,0-1.65,1.13c1.71,2.51,4.22,3.4,6.65,4.25a18.254,18.254,0,0,1,3.64,1.58,9.876,9.876,0,0,0,1.97.89c1.41,0.51,2.28.88,2.65,2.03A1,1,0,0,0,5626.61,3984.67Zm0,94.2a1.032,1.032,0,0,0,.3-0.04,1.007,1.007,0,0,0,.65-1.26c-0.67-2.16-2.44-2.8-3.87-3.32a8.648,8.648,0,0,1-1.59-.7,19.92,19.92,0,0,0-4.03-1.77c-2.23-.78-4.33-1.53-5.67-3.49a1,1,0,1,0-1.66,1.13c1.72,2.51,4.23,3.39,6.66,4.25a18.182,18.182,0,0,1,3.64,1.58,10.428,10.428,0,0,0,1.97.88c1.4,0.51,2.28.88,2.64,2.04A1,1,0,0,0,5626.61,4078.87Zm62.66-93.71a0.993,0.993,0,0,0,.91-0.58,1.006,1.006,0,0,0-.49-1.33,28.9,28.9,0,0,1-6.78-4.85,31.112,31.112,0,0,0-7.26-5.17,1,1,0,1,0-.83,1.82,28.9,28.9,0,0,1,6.77,4.86,30.785,30.785,0,0,0,7.26,5.16A0.911,0.911,0,0,0,5689.27,3985.16Zm32.08-61.13a1,1,0,0,0,.43-1.91c-2.6-1.23-4.61-3.22-6.74-5.32a27.51,27.51,0,0,0-7.29-5.7,1,1,0,1,0-.86,1.81c2.6,1.23,4.61,3.22,6.74,5.32a27.351,27.351,0,0,0,7.29,5.7A0.965,0.965,0,0,0,5721.35,3924.03Zm29.57,63.64a0.935,0.935,0,0,0,.43-0.1,1.017,1.017,0,0,0,.48-1.34,27.293,27.293,0,0,0-5.71-7.28,25.494,25.494,0,0,1-5.32-6.75,1,1,0,0,0-1.81.86,27.351,27.351,0,0,0,5.7,7.29,25.448,25.448,0,0,1,5.33,6.74A0.989,0.989,0,0,0,5750.92,3987.67Zm0,30.06a1.059,1.059,0,0,0,.42-0.09,1,1,0,0,0,.49-1.33,30.559,30.559,0,0,0-5.17-7.25,28.82,28.82,0,0,1-4.85-6.78,1.007,1.007,0,0,0-1.83.84,30.845,30.845,0,0,0,5.17,7.25,29.157,29.157,0,0,1,4.86,6.78A0.993,0.993,0,0,0,5750.92,4017.73Zm-61.65-2.5a1.01,1.01,0,0,0,.91-0.58,1,1,0,0,0-.5-1.33,28.9,28.9,0,0,1-6.77-4.86,30.785,30.785,0,0,0-7.26-5.16,1,1,0,0,0-.84,1.82,28.9,28.9,0,0,1,6.78,4.85,31.112,31.112,0,0,0,7.26,5.17A1.023,1.023,0,0,0,5689.27,4015.23Zm61.64,95.71a1.023,1.023,0,0,0,.42-0.09,1,1,0,0,0,.5-1.33,30.9,30.9,0,0,0-5.17-7.26,28.9,28.9,0,0,1-4.86-6.77,1,1,0,1,0-1.82.83,30.822,30.822,0,0,0,5.17,7.26,28.851,28.851,0,0,1,4.85,6.77A1,1,0,0,0,5750.91,4110.94Zm0.01-61.14a0.978,0.978,0,0,0,.41-0.09,1,1,0,0,0,.5-1.33,30.845,30.845,0,0,0-5.17-7.25,28.82,28.82,0,0,1-4.85-6.78,1.01,1.01,0,0,0-1.33-.49,1,1,0,0,0-.5,1.33,30.845,30.845,0,0,0,5.17,7.25,29.157,29.157,0,0,1,4.86,6.78A0.983,0.983,0,0,0,5750.92,4049.8Zm-61.66-1.5a1,1,0,0,0,.42-1.91,28.61,28.61,0,0,1-6.77-4.86,31.075,31.075,0,0,0-7.26-5.16,1,1,0,0,0-.84,1.82,28.662,28.662,0,0,1,6.78,4.86,30.663,30.663,0,0,0,7.26,5.16A0.978,0.978,0,0,0,5689.26,4048.3Zm0,31.07a1,1,0,0,0,.42-1.91,29.157,29.157,0,0,1-6.78-4.86,30.809,30.809,0,0,0-7.25-5.16,1,1,0,0,0-1.33.49,1.006,1.006,0,0,0,.49,1.33,29.111,29.111,0,0,1,6.78,4.85,30.417,30.417,0,0,0,7.26,5.17A0.978,0.978,0,0,0,5689.26,4079.37Zm61.66,1.5a0.978,0.978,0,0,0,.41-0.09,1,1,0,0,0,.5-1.33,30.845,30.845,0,0,0-5.17-7.25,29.157,29.157,0,0,1-4.86-6.78,1,1,0,0,0-1.82.84,30.845,30.845,0,0,0,5.17,7.25,28.82,28.82,0,0,1,4.85,6.78A1.025,1.025,0,0,0,5750.92,4080.87Zm-93.73-96.2a1.01,1.01,0,0,0,.7-1.73,29.27,29.27,0,0,0-7.32-4.71,29.657,29.657,0,0,1-6.26-3.84,1,1,0,0,0-1.31,1.51,31.714,31.714,0,0,0,6.66,4.12,26.986,26.986,0,0,1,6.83,4.36A1.019,1.019,0,0,0,5657.19,3984.67Zm-0.01,94.2a0.982,0.982,0,0,0,.72-0.3,1,1,0,0,0-.02-1.42,29.216,29.216,0,0,0-7.31-4.71,29.85,29.85,0,0,1-6.26-3.85,1.012,1.012,0,0,0-1.42.11,1,1,0,0,0,.1,1.41,32.037,32.037,0,0,0,6.67,4.12,26.986,26.986,0,0,1,6.83,4.36A0.968,0.968,0,0,0,5657.18,4078.87Zm124.82-91.2a1.087,1.087,0,0,0,.39-0.08,1.006,1.006,0,0,0,.53-1.32,46.816,46.816,0,0,0-5.27-8.72c-1.13-1.6-2.3-3.24-3.31-4.93a1,1,0,1,0-1.72,1.03c1.04,1.75,2.24,3.43,3.39,5.06a44.8,44.8,0,0,1,5.06,8.34A1.032,1.032,0,0,0,5782,3987.67Zm-124.82,121.27a1,1,0,0,0,.7-1.72,28.667,28.667,0,0,0-7.31-4.71,29.85,29.85,0,0,1-6.26-3.85,1.01,1.01,0,0,0-1.42.1,1,1,0,0,0,.1,1.41,32.037,32.037,0,0,0,6.67,4.12,26.783,26.783,0,0,1,6.82,4.37A1.055,1.055,0,0,0,5657.18,4108.94Zm0.01-156.35a1,1,0,0,0,.7-1.72,29.27,29.27,0,0,0-7.32-4.71,30.075,30.075,0,0,1-6.26-3.84,1,1,0,1,0-1.31,1.51,31.779,31.779,0,0,0,6.67,4.12,27.1,27.1,0,0,1,6.82,4.36A1.008,1.008,0,0,0,5657.19,3952.59Zm0-30.06a1.021,1.021,0,0,0,.88-0.52,1,1,0,0,0-.39-1.36l-13.53-7.52a1.007,1.007,0,1,0-.98,1.76l13.54,7.51A0.938,0.938,0,0,0,5657.19,3922.53Zm-0.01,125.27a1,1,0,0,0,.57-1.83l-12.53-8.52a1,1,0,0,0-1.39.27,0.988,0.988,0,0,0,.26,1.39l12.53,8.52A0.969,0.969,0,0,0,5657.18,4047.8Zm0.01-32.07a1,1,0,0,0,.56-1.83l-12.53-8.52a1,1,0,0,0-1.13,1.66l12.53,8.52A1,1,0,0,0,5657.19,4015.73Zm32.07,92.71a1.006,1.006,0,0,0,.56-1.84l-12.53-8.51a1,1,0,1,0-1.12,1.65l12.53,8.52A0.98,0.98,0,0,0,5689.26,4108.44Zm0.01-185.41a1,1,0,0,0,.57-1.83l-12.54-8.52a1,1,0,1,0-1.12,1.66l12.53,8.52A1.048,1.048,0,0,0,5689.27,3923.03Zm0,30.06a1,1,0,0,0,.56-1.83l-12.53-8.52a1,1,0,1,0-1.12,1.66l12.53,8.52A0.947,0.947,0,0,0,5689.27,3953.09Zm92.73,1.5a0.969,0.969,0,0,0,.56-0.17,1,1,0,0,0,.27-1.39l-8.52-12.53a1,1,0,0,0-1.39-.27,1.013,1.013,0,0,0-.27,1.4l8.52,12.52A1,1,0,0,0,5782,3954.59Zm-62.16,124.78a1,1,0,0,0,.68-1.74l-12.03-11.02a1,1,0,1,0-1.36,1.47l12.03,11.03A1.033,1.033,0,0,0,5719.84,4079.37Zm0-31.07a1.024,1.024,0,0,0,.74-0.32,1.009,1.009,0,0,0-.06-1.42l-12.03-11.02a1,1,0,1,0-1.36,1.47l12.03,11.03A1.053,1.053,0,0,0,5719.84,4048.3Zm31.08-94.21a0.967,0.967,0,0,0,.68-0.26,1,1,0,0,0,.06-1.42l-11.02-12.02a1,1,0,0,0-1.42-.06,0.988,0.988,0,0,0-.06,1.41l11.02,12.03A1.024,1.024,0,0,0,5750.92,3954.09Zm-31.08,62.14a1.024,1.024,0,0,0,.74-0.32,1,1,0,0,0-.06-1.42l-12.03-11.02a1,1,0,1,0-1.35,1.47l12.03,11.03A1.008,1.008,0,0,0,5719.84,4016.23Zm0,93.21a1,1,0,0,0,.74-0.33,1.01,1.01,0,0,0-.07-1.42l-12.02-11.02a1,1,0,1,0-1.36,1.48l12.03,11.02A1,1,0,0,0,5719.84,4109.44Zm0-123.28a0.971,0.971,0,0,0,.74-0.32,1,1,0,0,0-.06-1.42l-12.03-11.02a1,1,0,0,0-1.35,1.48l12.03,11.02A0.961,0.961,0,0,0,5719.84,3986.16Zm0.01-32.07a0.95,0.95,0,0,0,.73-0.32,1,1,0,0,0-.06-1.42l-12.03-11.02a1,1,0,0,0-1.35,1.48l12.03,11.02A0.967,0.967,0,0,0,5719.85,3954.09ZM5748.41,4141a0.84,0.84,0,0,0,.31-0.05,1,1,0,0,0,.64-1.27c-0.97-2.89-3.03-4.82-5.01-6.7a20.328,20.328,0,0,1-3.61-4.03,1,1,0,0,0-1.71,1.05,22.408,22.408,0,0,0,3.94,4.44c1.89,1.78,3.68,3.46,4.49,5.88A1,1,0,0,0,5748.41,4141Z" transform="translate(-5577 -3911)"/>
</svg>
