<svg xmlns="http://www.w3.org/2000/svg" width="137" height="114" viewBox="0 0 137 114">
  <defs>
    <style>
      .cls-1 {
        fill: #d7cfcc;
        fill-rule: evenodd;
      }
    </style>
  </defs>
  <path id="Shape_764_copy_3" data-name="Shape 764 copy 3" class="cls-1" d="M6019.65,4376.01v20a1.005,1.005,0,0,0,2.01,0v-20A1.005,1.005,0,0,0,6019.65,4376.01Zm31.11-1a0.97,0.97,0,0,0,.01.17l3.02,18a1,1,0,0,0,1.98-.33l-3.02-18A1,1,0,0,0,6050.76,4375.01Zm-32.11,51a1,1,0,0,0,.84.98,1.009,1.009,0,0,0,1.16-.82l3-18a0.984,0.984,0,0,0-.82-1.15,1,1,0,0,0-1.15.82l-3.01,18A0.985,0.985,0,0,0,6018.65,4426.01Zm-1.02-82a0.761,0.761,0,0,0,.03.21l4.02,18a1,1,0,0,0,1.96-.43l-4.02-18A1.008,1.008,0,0,0,6017.63,4344.01ZM5987.54,4393a1.013,1.013,0,0,0,.78.98,1,1,0,0,0,1.2-.76l4.01-18a1,1,0,0,0-.76-1.19,1.008,1.008,0,0,0-1.2.75l-4.01,18A1.8,1.8,0,0,0,5987.54,4393Zm58.7-47.49a1,1,0,0,0,.7.96c1.16,0.36,1.53,1.23,2.04,2.63a10.428,10.428,0,0,0,.88,1.97,17.328,17.328,0,0,1,1.59,3.63c0.86,2.42,1.75,4.93,4.26,6.64a1,1,0,1,0,1.13-1.65c-1.97-1.34-2.71-3.44-3.5-5.65a19.19,19.19,0,0,0-1.78-4.03,8.355,8.355,0,0,1-.69-1.59c-0.52-1.42-1.17-3.19-3.33-3.86a1,1,0,0,0-1.26.66A0.925,0.925,0,0,0,6046.24,4345.51Zm-57.21-.51c0,0.02.01,0.04,0.01,0.07l1,15.99a1.007,1.007,0,0,0,2.01-.12l-1.01-16A1.006,1.006,0,0,0,5989.03,4345Zm88.81-30.98a1.059,1.059,0,0,0,.09.42,30.741,30.741,0,0,0,5.18,7.24,28.844,28.844,0,0,1,4.86,6.76,1.006,1.006,0,0,0,1.33.49,0.991,0.991,0,0,0,.5-1.32,31.113,31.113,0,0,0-5.18-7.24,29.051,29.051,0,0,1-4.86-6.76A1,1,0,0,0,6077.84,4314.02Zm30.11,32.01a0.978,0.978,0,0,0,.09.41,31.113,31.113,0,0,0,5.18,7.24,29.051,29.051,0,0,1,4.86,6.76,1,1,0,0,0,1.83-.83,30.537,30.537,0,0,0-5.18-7.24,29.051,29.051,0,0,1-4.86-6.76,1.006,1.006,0,0,0-1.33-.49A0.992,0.992,0,0,0,6107.95,4346.03ZM5984.01,4314a1.055,1.055,0,0,0,.28.7,26.931,26.931,0,0,1,4.38,6.81,31.648,31.648,0,0,0,4.12,6.65,1,1,0,0,0,1.41.1,0.981,0.981,0,0,0,.1-1.41,30.035,30.035,0,0,1-3.85-6.25,29.11,29.11,0,0,0-4.71-7.29,1.008,1.008,0,0,0-1.42-.03A0.986,0.986,0,0,0,5984.01,4314Zm2.03,110a1,1,0,0,0,1.88.48l7.52-13.49a0.983,0.983,0,0,0-.39-1.36,1,1,0,0,0-1.36.38l-7.52,13.5A0.973,0.973,0,0,0,5986.04,4424Zm92.31-77.98a1.048,1.048,0,0,0,.17.56l8.53,12.5a1.013,1.013,0,0,0,1.4.27,0.988,0.988,0,0,0,.26-1.39l-8.53-12.5A1,1,0,0,0,6078.35,4346.02Zm-31.62-31a0.98,0.98,0,0,0,.18.56l8.53,12.5a1,1,0,0,0,1.66-1.13l-8.53-12.5A1.009,1.009,0,0,0,6046.73,4315.02Zm-30.61-.01a0.98,0.98,0,0,0,.18.56l8.53,12.5a1,1,0,1,0,1.66-1.12l-8.53-12.5a1.011,1.011,0,0,0-1.4-.27A1.026,1.026,0,0,0,6016.12,4315.01Zm96.34,7.02a1.006,1.006,0,0,0,.69.95,9.753,9.753,0,0,1,4.01,3.13,20.688,20.688,0,0,0,2.2,2.19,1,1,0,0,0,1.41-.14,0.989,0.989,0,0,0-.14-1.4,19.6,19.6,0,0,1-1.98-1.99,11.461,11.461,0,0,0-4.87-3.69,1,1,0,0,0-1.26.63A0.906,0.906,0,0,0,6112.46,4322.03Z" transform="translate(-5984 -4313)"/>
</svg>
