<svg width="759" height="152" viewBox="0 0 759 152" fill="none" xmlns="http://www.w3.org/2000/svg">
<path d="M42.2808 1.38281V4.40625H25.4058V48H17.5659V4.40625H0.690948V1.38281H42.2808ZM59.2247 25.6406V48H51.3849V1.38281H59.2247V22.6172H82.6388V1.38281H90.4786V48H82.6388V25.6406H59.2247ZM137.059 1.38281V4.40625H112.485V21.0703H128.938V24.0938H112.485V44.9766H137.059V48H104.645V1.38281H137.059ZM163.916 1.38281H182.689C185.174 1.38281 187.447 1.66406 189.51 2.22656C191.595 2.76562 193.377 3.53906 194.853 4.54688C196.353 5.55469 197.513 6.76172 198.334 8.16797C199.154 9.57422 199.564 11.1211 199.564 12.8086C199.564 14.0977 199.435 15.2461 199.178 16.2539C198.92 17.2617 198.463 18.1992 197.806 19.0664C197.15 19.9102 196.271 20.7188 195.17 21.4922C194.092 22.2422 192.72 23.0156 191.056 23.8125V23.9531C192.72 24.2109 194.22 24.6562 195.556 25.2891C196.892 25.9219 198.029 26.7305 198.967 27.7148C199.928 28.6758 200.666 29.8125 201.181 31.125C201.697 32.4141 201.955 33.832 201.955 35.3789C201.955 37.1367 201.568 38.7891 200.795 40.3359C200.045 41.8594 198.955 43.1953 197.525 44.3438C196.119 45.4688 194.408 46.3594 192.392 47.0156C190.4 47.6719 188.162 48 185.678 48H163.916V1.38281ZM171.756 22.3711H181.74C183.31 22.3711 184.705 22.1484 185.924 21.7031C187.142 21.2578 188.174 20.6484 189.017 19.875C189.861 19.0781 190.494 18.1406 190.916 17.0625C191.361 15.9609 191.584 14.7773 191.584 13.5117C191.584 12.1523 191.326 10.9219 190.81 9.82031C190.295 8.69531 189.486 7.73438 188.385 6.9375C187.306 6.14062 185.924 5.53125 184.236 5.10938C182.572 4.6875 180.568 4.47656 178.224 4.47656H171.756V22.3711ZM171.756 44.5898H180.228C182.502 44.5898 184.47 44.3789 186.135 43.957C187.822 43.5117 189.205 42.9023 190.283 42.1289C191.385 41.332 192.193 40.3828 192.709 39.2812C193.248 38.1797 193.517 36.9727 193.517 35.6602C193.517 34.1836 193.283 32.8125 192.814 31.5469C192.345 30.2812 191.572 29.1914 190.494 28.2773C189.439 27.3398 188.045 26.6016 186.31 26.0625C184.599 25.5234 182.49 25.2539 179.982 25.2539H171.756V44.5898ZM245.371 1.38281V4.40625H220.797V21.0703H237.25V24.0938H220.797V44.9766H245.371V48H212.957V1.38281H245.371ZM271.28 46.1367C272.429 46.1367 273.565 45.9844 274.69 45.6797C275.815 45.3516 276.823 44.8828 277.714 44.2734C278.604 43.6406 279.319 42.8789 279.858 41.9883C280.397 41.0742 280.667 40.0195 280.667 38.8242C280.667 37.3945 280.292 36.1289 279.542 35.0273C278.815 33.9023 277.854 32.8828 276.659 31.9688C275.464 31.0312 274.093 30.1523 272.546 29.332C271.022 28.5117 269.464 27.6914 267.87 26.8711C266.276 26.0508 264.706 25.1953 263.159 24.3047C261.636 23.3906 260.276 22.3828 259.081 21.2812C257.886 20.1562 256.913 18.9141 256.163 17.5547C255.436 16.1719 255.073 14.5898 255.073 12.8086C255.073 11.0273 255.401 9.375 256.058 7.85156C256.737 6.32813 257.722 5.01562 259.011 3.91406C260.3 2.78906 261.882 1.91016 263.757 1.27734C265.655 0.644531 267.823 0.328125 270.261 0.328125C272.464 0.328125 274.433 0.5625 276.167 1.03125C277.901 1.5 279.425 2.19141 280.737 3.10547C282.05 4.01953 283.163 5.14453 284.077 6.48047C284.991 7.81641 285.729 9.36328 286.292 11.1211L282.284 12.9492C281.815 11.5195 281.218 10.2188 280.491 9.04688C279.765 7.85156 278.897 6.83203 277.89 5.98828C276.882 5.14453 275.71 4.5 274.374 4.05469C273.061 3.58594 271.573 3.35156 269.909 3.35156C268.433 3.35156 267.143 3.5625 266.042 3.98438C264.94 4.38281 264.015 4.92188 263.265 5.60156C262.538 6.25781 261.987 7.00781 261.612 7.85156C261.261 8.67187 261.085 9.51562 261.085 10.3828C261.085 11.6016 261.46 12.7266 262.21 13.7578C262.96 14.7656 263.956 15.7266 265.198 16.6406C266.44 17.5312 267.847 18.3984 269.417 19.2422C271.011 20.0859 272.628 20.9414 274.268 21.8086C275.909 22.6758 277.515 23.5781 279.085 24.5156C280.679 25.4531 282.097 26.4844 283.339 27.6094C284.581 28.7109 285.577 29.9297 286.327 31.2656C287.077 32.5781 287.452 34.0547 287.452 35.6953C287.452 37.5469 287.1 39.293 286.397 40.9336C285.694 42.5508 284.64 43.9688 283.233 45.1875C281.827 46.3828 280.081 47.332 277.995 48.0352C275.909 48.7383 273.483 49.0898 270.718 49.0898C268.468 49.0898 266.464 48.8438 264.706 48.3516C262.948 47.8594 261.39 47.1445 260.03 46.207C258.694 45.2695 257.546 44.1328 256.585 42.7969C255.624 41.4375 254.839 39.8906 254.229 38.1562L258.413 36.4336C258.905 37.957 259.561 39.3164 260.382 40.5117C261.225 41.707 262.198 42.7266 263.3 43.5703C264.401 44.3906 265.62 45.0234 266.956 45.4688C268.315 45.9141 269.757 46.1367 271.28 46.1367ZM315.048 46.1367C316.197 46.1367 317.333 45.9844 318.458 45.6797C319.583 45.3516 320.591 44.8828 321.482 44.2734C322.372 43.6406 323.087 42.8789 323.626 41.9883C324.165 41.0742 324.435 40.0195 324.435 38.8242C324.435 37.3945 324.06 36.1289 323.31 35.0273C322.583 33.9023 321.622 32.8828 320.427 31.9688C319.232 31.0312 317.861 30.1523 316.314 29.332C314.79 28.5117 313.232 27.6914 311.638 26.8711C310.044 26.0508 308.474 25.1953 306.927 24.3047C305.404 23.3906 304.044 22.3828 302.849 21.2812C301.654 20.1562 300.681 18.9141 299.931 17.5547C299.205 16.1719 298.841 14.5898 298.841 12.8086C298.841 11.0273 299.169 9.375 299.826 7.85156C300.505 6.32813 301.49 5.01562 302.779 3.91406C304.068 2.78906 305.65 1.91016 307.525 1.27734C309.423 0.644531 311.591 0.328125 314.029 0.328125C316.232 0.328125 318.201 0.5625 319.935 1.03125C321.669 1.5 323.193 2.19141 324.505 3.10547C325.818 4.01953 326.931 5.14453 327.845 6.48047C328.759 7.81641 329.497 9.36328 330.06 11.1211L326.052 12.9492C325.583 11.5195 324.986 10.2188 324.259 9.04688C323.533 7.85156 322.665 6.83203 321.658 5.98828C320.65 5.14453 319.478 4.5 318.142 4.05469C316.83 3.58594 315.341 3.35156 313.677 3.35156C312.201 3.35156 310.912 3.5625 309.81 3.98438C308.708 4.38281 307.783 4.92188 307.033 5.60156C306.306 6.25781 305.755 7.00781 305.38 7.85156C305.029 8.67187 304.853 9.51562 304.853 10.3828C304.853 11.6016 305.228 12.7266 305.978 13.7578C306.728 14.7656 307.724 15.7266 308.966 16.6406C310.208 17.5312 311.615 18.3984 313.185 19.2422C314.779 20.0859 316.396 20.9414 318.037 21.8086C319.677 22.6758 321.283 23.5781 322.853 24.5156C324.447 25.4531 325.865 26.4844 327.107 27.6094C328.349 28.7109 329.345 29.9297 330.095 31.2656C330.845 32.5781 331.22 34.0547 331.22 35.6953C331.22 37.5469 330.869 39.293 330.165 40.9336C329.462 42.5508 328.408 43.9688 327.001 45.1875C325.595 46.3828 323.849 47.332 321.763 48.0352C319.677 48.7383 317.251 49.0898 314.486 49.0898C312.236 49.0898 310.232 48.8438 308.474 48.3516C306.716 47.8594 305.158 47.1445 303.798 46.207C302.462 45.2695 301.314 44.1328 300.353 42.7969C299.392 41.4375 298.607 39.8906 297.997 38.1562L302.181 36.4336C302.673 37.957 303.33 39.3164 304.15 40.5117C304.994 41.707 305.966 42.7266 307.068 43.5703C308.169 44.3906 309.388 45.0234 310.724 45.4688C312.083 45.9141 313.525 46.1367 315.048 46.1367ZM350.941 24.8672C350.941 28.125 351.434 31.0547 352.418 33.6562C353.402 36.2344 354.75 38.4258 356.461 40.2305C358.195 42.0117 360.234 43.3828 362.578 44.3438C364.922 45.2812 367.465 45.75 370.207 45.75C371.848 45.75 373.43 45.4336 374.953 44.8008C376.477 44.168 377.883 43.3477 379.172 42.3398C380.484 41.3086 381.656 40.1602 382.688 38.8945C383.719 37.6055 384.562 36.3047 385.219 34.9922L388.523 37.1016C387.562 38.6719 386.426 40.1836 385.113 41.6367C383.801 43.0664 382.277 44.3438 380.543 45.4688C378.832 46.5703 376.887 47.4492 374.707 48.1055C372.551 48.7617 370.137 49.0898 367.465 49.0898C363.598 49.0898 360.082 48.4453 356.918 47.1562C353.777 45.8672 351.082 44.1211 348.832 41.918C346.582 39.7148 344.836 37.1484 343.594 34.2188C342.375 31.2656 341.766 28.1484 341.766 24.8672C341.766 22.6875 342.047 20.5664 342.609 18.5039C343.172 16.418 343.98 14.4727 345.035 12.668C346.113 10.8398 347.414 9.17578 348.938 7.67578C350.484 6.15234 352.219 4.85156 354.141 3.77344C356.086 2.67188 358.207 1.82813 360.504 1.24219C362.801 0.632813 365.25 0.328125 367.852 0.328125C370.336 0.328125 372.621 0.667969 374.707 1.34766C376.816 2.00391 378.727 2.88281 380.438 3.98438C382.172 5.08594 383.707 6.36328 385.043 7.81641C386.402 9.24609 387.562 10.7461 388.523 12.3164L385.113 14.5664C383.168 10.793 380.988 8.03906 378.574 6.30469C376.16 4.54688 373.383 3.66797 370.242 3.66797C367.547 3.66797 365.027 4.16016 362.684 5.14453C360.34 6.12891 358.289 7.53516 356.531 9.36328C354.797 11.1914 353.426 13.418 352.418 16.043C351.434 18.6445 350.941 21.5859 350.941 24.8672ZM408.737 25.6406V48H400.897V1.38281H408.737V22.6172H432.151V1.38281H439.991V48H432.151V25.6406H408.737ZM472.403 0.328125L494.341 48H486.36L479.259 32.4609H459.255L451.907 48H447.97L470.435 0.328125H472.403ZM460.626 29.4375H477.818L469.345 10.9805L460.626 29.4375ZM538.918 1.38281V4.40625H522.043V48H514.203V4.40625H497.328V1.38281H538.918ZM548.022 1.38281H552.416L582.967 35.4844H583.319V1.38281H586.764V49.0898H584.936L551.854 11.1914H551.573V48H548.022V1.38281ZM624.485 49.0898C620.876 49.0898 617.501 48.4453 614.36 47.1562C611.243 45.8672 608.524 44.1094 606.204 41.8828C603.907 39.6328 602.091 37.0195 600.755 34.043C599.442 31.043 598.786 27.8438 598.786 24.4453C598.786 22.2188 599.079 20.0742 599.665 18.0117C600.274 15.9492 601.13 14.0273 602.231 12.2461C603.333 10.4648 604.657 8.84766 606.204 7.39453C607.774 5.91797 609.509 4.66406 611.407 3.63281C613.305 2.57812 615.356 1.76953 617.559 1.20703C619.762 0.621094 622.071 0.328125 624.485 0.328125C626.899 0.328125 629.208 0.621094 631.411 1.20703C633.614 1.76953 635.665 2.57812 637.563 3.63281C639.485 4.66406 641.219 5.91797 642.766 7.39453C644.313 8.84766 645.637 10.4648 646.739 12.2461C647.864 14.0273 648.719 15.9492 649.305 18.0117C649.915 20.0742 650.219 22.2188 650.219 24.4453C650.219 26.6953 649.915 28.875 649.305 30.9844C648.719 33.0703 647.864 35.0273 646.739 36.8555C645.637 38.6836 644.313 40.3477 642.766 41.8477C641.219 43.3477 639.485 44.6367 637.563 45.7148C635.665 46.793 633.614 47.625 631.411 48.2109C629.208 48.7969 626.899 49.0898 624.485 49.0898ZM624.485 46.7695C627.157 46.7695 629.512 46.2188 631.552 45.1172C633.614 43.9922 635.348 42.4336 636.755 40.4414C638.161 38.4492 639.216 36.0938 639.919 33.375C640.645 30.6562 641.009 27.6797 641.009 24.4453C641.009 21.2344 640.645 18.293 639.919 15.6211C639.216 12.9492 638.161 10.6523 636.755 8.73047C635.348 6.78516 633.614 5.28516 631.552 4.23047C629.512 3.15234 627.157 2.61328 624.485 2.61328C621.766 2.61328 619.376 3.15234 617.313 4.23047C615.274 5.28516 613.552 6.78516 612.145 8.73047C610.762 10.6523 609.719 12.9492 609.016 15.6211C608.313 18.293 607.962 21.2344 607.962 24.4453C607.962 27.6797 608.313 30.6562 609.016 33.375C609.719 36.0938 610.762 38.4492 612.145 40.4414C613.552 42.4336 615.274 43.9922 617.313 45.1172C619.376 46.2188 621.766 46.7695 624.485 46.7695ZM664.281 1.38281L681.894 38.4727L698.242 1.38281H701.968L680.804 49.0898H678.765L656.019 1.38281H664.281ZM725.17 46.1367C726.318 46.1367 727.455 45.9844 728.58 45.6797C729.705 45.3516 730.713 44.8828 731.603 44.2734C732.494 43.6406 733.209 42.8789 733.748 41.9883C734.287 41.0742 734.557 40.0195 734.557 38.8242C734.557 37.3945 734.182 36.1289 733.432 35.0273C732.705 33.9023 731.744 32.8828 730.549 31.9688C729.353 31.0312 727.982 30.1523 726.435 29.332C724.912 28.5117 723.353 27.6914 721.76 26.8711C720.166 26.0508 718.596 25.1953 717.049 24.3047C715.525 23.3906 714.166 22.3828 712.971 21.2812C711.775 20.1562 710.803 18.9141 710.053 17.5547C709.326 16.1719 708.963 14.5898 708.963 12.8086C708.963 11.0273 709.291 9.375 709.947 7.85156C710.627 6.32813 711.611 5.01562 712.9 3.91406C714.189 2.78906 715.771 1.91016 717.646 1.27734C719.545 0.644531 721.713 0.328125 724.15 0.328125C726.353 0.328125 728.322 0.5625 730.057 1.03125C731.791 1.5 733.314 2.19141 734.627 3.10547C735.939 4.01953 737.053 5.14453 737.967 6.48047C738.881 7.81641 739.619 9.36328 740.182 11.1211L736.174 12.9492C735.705 11.5195 735.107 10.2188 734.381 9.04688C733.654 7.85156 732.787 6.83203 731.779 5.98828C730.771 5.14453 729.599 4.5 728.264 4.05469C726.951 3.58594 725.463 3.35156 723.799 3.35156C722.322 3.35156 721.033 3.5625 719.932 3.98438C718.83 4.38281 717.904 4.92188 717.154 5.60156C716.428 6.25781 715.877 7.00781 715.502 7.85156C715.15 8.67187 714.974 9.51562 714.974 10.3828C714.974 11.6016 715.349 12.7266 716.099 13.7578C716.849 14.7656 717.846 15.7266 719.088 16.6406C720.33 17.5312 721.736 18.3984 723.307 19.2422C724.9 20.0859 726.517 20.9414 728.158 21.8086C729.799 22.6758 731.404 23.5781 732.974 24.5156C734.568 25.4531 735.986 26.4844 737.228 27.6094C738.471 28.7109 739.467 29.9297 740.217 31.2656C740.967 32.5781 741.342 34.0547 741.342 35.6953C741.342 37.5469 740.99 39.293 740.287 40.9336C739.584 42.5508 738.529 43.9688 737.123 45.1875C735.717 46.3828 733.971 47.332 731.885 48.0352C729.799 48.7383 727.373 49.0898 724.607 49.0898C722.357 49.0898 720.353 48.8438 718.596 48.3516C716.838 47.8594 715.279 47.1445 713.92 46.207C712.584 45.2695 711.435 44.1328 710.474 42.7969C709.514 41.4375 708.728 39.8906 708.119 38.1562L712.303 36.4336C712.795 37.957 713.451 39.3164 714.271 40.5117C715.115 41.707 716.088 42.7266 717.189 43.5703C718.291 44.3906 719.51 45.0234 720.846 45.4688C722.205 45.9141 723.646 46.1367 725.17 46.1367ZM755.051 41.6719C755.567 41.6719 756.059 41.7773 756.528 41.9883C756.997 42.1758 757.407 42.4336 757.758 42.7617C758.11 43.0898 758.379 43.4883 758.567 43.957C758.778 44.4023 758.883 44.8711 758.883 45.3633C758.883 45.9023 758.778 46.3945 758.567 46.8398C758.379 47.2852 758.11 47.6719 757.758 48C757.407 48.3516 756.997 48.6211 756.528 48.8086C756.059 48.9961 755.567 49.0898 755.051 49.0898C754.512 49.0898 754.008 48.9961 753.54 48.8086C753.071 48.6211 752.661 48.3516 752.309 48C751.958 47.6719 751.676 47.2852 751.465 46.8398C751.278 46.3945 751.184 45.9023 751.184 45.3633C751.184 44.8711 751.278 44.4023 751.465 43.957C751.676 43.4883 751.958 43.0898 752.309 42.7617C752.661 42.4336 753.071 42.1758 753.54 41.9883C754.008 41.7773 754.512 41.6719 755.051 41.6719ZM90.1453 150V110.555H82.3055V108.551C85.1649 108.551 87.45 108.012 89.1609 106.934C90.8719 105.855 92.1961 104.32 93.1336 102.328H96.7547V150H90.1453ZM128.64 148.277C129.601 148.277 130.492 148.137 131.312 147.855C132.132 147.551 132.835 147.152 133.421 146.66C134.031 146.168 134.499 145.605 134.828 144.973C135.156 144.316 135.32 143.648 135.32 142.969C135.32 141.867 135.038 140.906 134.476 140.086C133.937 139.266 133.21 138.539 132.296 137.906C131.406 137.25 130.386 136.652 129.238 136.113C128.089 135.574 126.917 135.023 125.722 134.461C124.527 133.875 123.355 133.266 122.206 132.633C121.058 131.977 120.027 131.215 119.113 130.348C118.222 129.48 117.495 128.484 116.933 127.359C116.394 126.211 116.124 124.875 116.124 123.352C116.124 121.922 116.429 120.598 117.038 119.379C117.648 118.137 118.492 117.07 119.57 116.18C120.671 115.289 121.972 114.598 123.472 114.105C124.972 113.59 126.613 113.332 128.394 113.332C129.589 113.332 130.703 113.414 131.734 113.578C132.765 113.742 133.773 114.059 134.757 114.527C135.765 114.996 136.761 115.676 137.745 116.566C138.73 117.434 139.773 118.57 140.874 119.977L138.238 122.332C136.878 120.105 135.355 118.453 133.667 117.375C132.003 116.273 130.222 115.723 128.324 115.723C127.292 115.723 126.355 115.852 125.511 116.109C124.667 116.344 123.941 116.684 123.331 117.129C122.745 117.551 122.277 118.055 121.925 118.641C121.597 119.227 121.433 119.848 121.433 120.504C121.433 121.582 121.726 122.52 122.312 123.316C122.921 124.113 123.718 124.84 124.703 125.496C125.687 126.129 126.8 126.715 128.042 127.254C129.308 127.793 130.585 128.344 131.874 128.906C133.187 129.469 134.464 130.078 135.706 130.734C136.972 131.391 138.097 132.152 139.081 133.02C140.066 133.863 140.851 134.848 141.437 135.973C142.046 137.098 142.351 138.41 142.351 139.91C142.351 141.434 142.07 142.863 141.507 144.199C140.945 145.512 140.089 146.66 138.941 147.645C137.816 148.605 136.398 149.367 134.687 149.93C132.976 150.492 130.96 150.773 128.64 150.773C127.585 150.773 126.495 150.691 125.37 150.527C124.269 150.363 123.156 150.047 122.031 149.578C120.906 149.086 119.781 148.406 118.656 147.539C117.531 146.672 116.429 145.535 115.351 144.129L118.269 141.492C119.136 142.711 119.968 143.754 120.765 144.621C121.562 145.465 122.37 146.168 123.191 146.73C124.035 147.27 124.89 147.668 125.757 147.926C126.648 148.16 127.609 148.277 128.64 148.277ZM161.51 101.766H163.549V114H171.564V117.059H163.549V142.406C163.549 142.945 163.643 143.449 163.83 143.918C164.041 144.387 164.31 144.797 164.639 145.148C164.99 145.5 165.4 145.781 165.869 145.992C166.338 146.18 166.853 146.273 167.416 146.273C168.213 146.273 168.939 146.074 169.596 145.676C170.252 145.277 170.826 144.785 171.318 144.199L173.111 145.395C172.127 147.059 170.85 148.371 169.279 149.332C167.709 150.293 165.764 150.773 163.443 150.773C162.248 150.773 161.205 150.562 160.314 150.141C159.424 149.742 158.685 149.18 158.1 148.453C157.537 147.703 157.115 146.824 156.834 145.816C156.553 144.785 156.412 143.648 156.412 142.406V117.059H150.154V115.723L156.412 114V103.77L161.51 101.766ZM218.46 102.328L240.398 150H232.417L225.315 134.461H205.312L197.964 150H194.026L216.491 102.328H218.46ZM206.683 131.438H223.874L215.401 112.98L206.683 131.438ZM248.341 103.383H252.736L283.287 137.484H283.638V103.383H287.084V151.09H285.255L252.173 113.191H251.892V150H248.341V103.383ZM301.18 103.383H305.574L336.125 137.484H336.477V103.383H339.922V151.09H338.094L305.012 113.191H304.731V150H301.18V103.383ZM354.018 103.383H361.858V150H354.018V103.383ZM378.064 103.383L395.677 140.473L412.025 103.383H415.751L394.587 151.09H392.548L369.802 103.383H378.064ZM456.109 103.383V106.406H431.535V123.07H447.988V126.094H431.535V146.977H456.109V150H423.695V103.383H456.109ZM466.76 103.383H482.932C485.721 103.383 488.17 103.688 490.28 104.297C492.389 104.883 494.147 105.715 495.553 106.793C496.959 107.871 498.014 109.16 498.717 110.66C499.444 112.137 499.807 113.754 499.807 115.512C499.807 116.965 499.526 118.324 498.963 119.59C498.424 120.855 497.651 122.004 496.643 123.035C495.659 124.043 494.463 124.922 493.057 125.672C491.651 126.398 490.104 126.973 488.416 127.395L505.397 150H496.291L480.084 128.098H474.6V150H466.76V103.383ZM474.6 125.742H479.135C480.893 125.742 482.51 125.508 483.987 125.039C485.487 124.57 486.776 123.914 487.854 123.07C488.955 122.203 489.811 121.16 490.42 119.941C491.03 118.723 491.334 117.352 491.334 115.828C491.334 114.422 491.088 113.133 490.596 111.961C490.127 110.789 489.448 109.793 488.557 108.973C487.69 108.129 486.647 107.473 485.428 107.004C484.233 106.535 482.92 106.301 481.491 106.301H474.6V125.742ZM528.458 148.137C529.606 148.137 530.743 147.984 531.868 147.68C532.993 147.352 534.001 146.883 534.892 146.273C535.782 145.641 536.497 144.879 537.036 143.988C537.575 143.074 537.845 142.02 537.845 140.824C537.845 139.395 537.47 138.129 536.72 137.027C535.993 135.902 535.032 134.883 533.837 133.969C532.642 133.031 531.27 132.152 529.724 131.332C528.2 130.512 526.642 129.691 525.048 128.871C523.454 128.051 521.884 127.195 520.337 126.305C518.813 125.391 517.454 124.383 516.259 123.281C515.063 122.156 514.091 120.914 513.341 119.555C512.614 118.172 512.251 116.59 512.251 114.809C512.251 113.027 512.579 111.375 513.235 109.852C513.915 108.328 514.899 107.016 516.188 105.914C517.478 104.789 519.06 103.91 520.935 103.277C522.833 102.645 525.001 102.328 527.438 102.328C529.642 102.328 531.61 102.562 533.345 103.031C535.079 103.5 536.603 104.191 537.915 105.105C539.228 106.02 540.341 107.145 541.255 108.48C542.169 109.816 542.907 111.363 543.47 113.121L539.462 114.949C538.993 113.52 538.395 112.219 537.669 111.047C536.942 109.852 536.075 108.832 535.067 107.988C534.06 107.145 532.888 106.5 531.552 106.055C530.239 105.586 528.751 105.352 527.087 105.352C525.61 105.352 524.321 105.562 523.22 105.984C522.118 106.383 521.192 106.922 520.442 107.602C519.716 108.258 519.165 109.008 518.79 109.852C518.438 110.672 518.263 111.516 518.263 112.383C518.263 113.602 518.638 114.727 519.388 115.758C520.138 116.766 521.134 117.727 522.376 118.641C523.618 119.531 525.024 120.398 526.595 121.242C528.188 122.086 529.806 122.941 531.446 123.809C533.087 124.676 534.692 125.578 536.263 126.516C537.856 127.453 539.274 128.484 540.517 129.609C541.759 130.711 542.755 131.93 543.505 133.266C544.255 134.578 544.63 136.055 544.63 137.695C544.63 139.547 544.278 141.293 543.575 142.934C542.872 144.551 541.817 145.969 540.411 147.188C539.005 148.383 537.259 149.332 535.173 150.035C533.087 150.738 530.661 151.09 527.895 151.09C525.645 151.09 523.642 150.844 521.884 150.352C520.126 149.859 518.567 149.145 517.208 148.207C515.872 147.27 514.724 146.133 513.763 144.797C512.802 143.438 512.017 141.891 511.407 140.156L515.591 138.434C516.083 139.957 516.739 141.316 517.56 142.512C518.403 143.707 519.376 144.727 520.478 145.57C521.579 146.391 522.798 147.023 524.134 147.469C525.493 147.914 526.935 148.137 528.458 148.137ZM575.214 102.328L597.152 150H589.171L582.07 134.461H562.066L554.718 150H550.781L573.246 102.328H575.214ZM563.437 131.438H580.628L572.156 112.98L563.437 131.438ZM605.096 103.383H621.268C624.057 103.383 626.506 103.688 628.615 104.297C630.725 104.883 632.482 105.715 633.889 106.793C635.295 107.871 636.35 109.16 637.053 110.66C637.779 112.137 638.143 113.754 638.143 115.512C638.143 116.965 637.861 118.324 637.299 119.59C636.76 120.855 635.986 122.004 634.979 123.035C633.994 124.043 632.799 124.922 631.393 125.672C629.986 126.398 628.44 126.973 626.752 127.395L643.732 150H634.627L618.42 128.098H612.936V150H605.096V103.383ZM612.936 125.742H617.471C619.229 125.742 620.846 125.508 622.322 125.039C623.822 124.57 625.111 123.914 626.19 123.07C627.291 122.203 628.147 121.16 628.756 119.941C629.365 118.723 629.67 117.352 629.67 115.828C629.67 114.422 629.424 113.133 628.932 111.961C628.463 110.789 627.783 109.793 626.893 108.973C626.025 108.129 624.982 107.473 623.764 107.004C622.568 106.535 621.256 106.301 619.826 106.301H612.936V125.742ZM653.294 103.383L669.465 127.008L685.567 103.383H689.821L671.751 129.855V150H663.911V130.594L645.278 103.383H653.294Z" fill="black"/>
</svg>
