<svg width="254" height="51" viewBox="0 0 254 51" fill="none" xmlns="http://www.w3.org/2000/svg">
<path d="M14.5936 0.460938V1.46875H8.9686V16H6.35532V1.46875H0.730316V0.460938H14.5936ZM20.2416 8.54688V16H17.6283V0.460938H20.2416V7.53906H28.0463V0.460938H30.6595V16H28.0463V8.54688H20.2416ZM46.1864 0.460938V1.46875H37.995V7.02344H43.4794V8.03125H37.995V14.9922H46.1864V16H35.3817V0.460938H46.1864ZM55.1386 0.460938H61.3964C62.2245 0.460938 62.9823 0.554688 63.6698 0.742188C64.3652 0.921875 64.9589 1.17969 65.4511 1.51562C65.9511 1.85156 66.3378 2.25391 66.6113 2.72266C66.8847 3.19141 67.0214 3.70703 67.0214 4.26953C67.0214 4.69922 66.9784 5.08203 66.8925 5.41797C66.8066 5.75391 66.6542 6.06641 66.4355 6.35547C66.2167 6.63672 65.9238 6.90625 65.5566 7.16406C65.1972 7.41406 64.7402 7.67188 64.1855 7.9375V7.98438C64.7402 8.07031 65.2402 8.21875 65.6855 8.42969C66.1308 8.64062 66.5097 8.91016 66.8222 9.23828C67.1425 9.55859 67.3886 9.9375 67.5605 10.375C67.7323 10.8047 67.8183 11.2773 67.8183 11.793C67.8183 12.3789 67.6894 12.9297 67.4316 13.4453C67.1816 13.9531 66.8183 14.3984 66.3417 14.7812C65.873 15.1562 65.3027 15.4531 64.6308 15.6719C63.9667 15.8906 63.2206 16 62.3925 16H55.1386V0.460938ZM57.7519 7.45703H61.08C61.6034 7.45703 62.0683 7.38281 62.4745 7.23438C62.8808 7.08594 63.2245 6.88281 63.5058 6.625C63.787 6.35938 63.998 6.04688 64.1386 5.6875C64.287 5.32031 64.3613 4.92578 64.3613 4.50391C64.3613 4.05078 64.2753 3.64062 64.1034 3.27344C63.9316 2.89844 63.662 2.57812 63.2948 2.3125C62.9355 2.04688 62.4745 1.84375 61.912 1.70312C61.3573 1.5625 60.6894 1.49219 59.9081 1.49219H57.7519V7.45703ZM57.7519 14.8633H60.5761C61.3339 14.8633 61.9902 14.793 62.5448 14.6523C63.1073 14.5039 63.5683 14.3008 63.9277 14.043C64.2948 13.7773 64.5644 13.4609 64.7363 13.0938C64.9159 12.7266 65.0058 12.3242 65.0058 11.8867C65.0058 11.3945 64.9277 10.9375 64.7714 10.5156C64.6152 10.0938 64.3573 9.73047 63.998 9.42578C63.6464 9.11328 63.1816 8.86719 62.6034 8.6875C62.0331 8.50781 61.33 8.41797 60.4941 8.41797H57.7519V14.8633ZM82.2905 0.460938V1.46875H74.0991V7.02344H79.5834V8.03125H74.0991V14.9922H82.2905V16H71.4858V0.460938H82.2905ZM90.9267 15.3789C91.3095 15.3789 91.6884 15.3281 92.0634 15.2266C92.4384 15.1172 92.7744 14.9609 93.0713 14.7578C93.3681 14.5469 93.6064 14.293 93.7861 13.9961C93.9658 13.6914 94.0556 13.3398 94.0556 12.9414C94.0556 12.4648 93.9306 12.043 93.6806 11.6758C93.4384 11.3008 93.1181 10.9609 92.7197 10.6562C92.3213 10.3438 91.8642 10.0508 91.3486 9.77734C90.8408 9.50391 90.3213 9.23047 89.79 8.95703C89.2588 8.68359 88.7353 8.39844 88.2197 8.10156C87.7119 7.79688 87.2588 7.46094 86.8603 7.09375C86.4619 6.71875 86.1377 6.30469 85.8877 5.85156C85.6455 5.39062 85.5244 4.86328 85.5244 4.26953C85.5244 3.67578 85.6338 3.125 85.8525 2.61719C86.0791 2.10938 86.4072 1.67188 86.8369 1.30469C87.2666 0.929688 87.7939 0.636719 88.4189 0.425781C89.0517 0.214844 89.7744 0.109375 90.5869 0.109375C91.3213 0.109375 91.9775 0.1875 92.5556 0.34375C93.1338 0.5 93.6416 0.730469 94.0791 1.03516C94.5166 1.33984 94.8877 1.71484 95.1923 2.16016C95.497 2.60547 95.7431 3.12109 95.9306 3.70703L94.5947 4.31641C94.4384 3.83984 94.2392 3.40625 93.997 3.01562C93.7548 2.61719 93.4658 2.27734 93.1298 1.99609C92.7939 1.71484 92.4033 1.5 91.958 1.35156C91.5205 1.19531 91.0244 1.11719 90.4697 1.11719C89.9775 1.11719 89.5478 1.1875 89.1806 1.32812C88.8134 1.46094 88.5048 1.64062 88.2548 1.86719C88.0127 2.08594 87.8291 2.33594 87.7041 2.61719C87.5869 2.89062 87.5283 3.17188 87.5283 3.46094C87.5283 3.86719 87.6533 4.24219 87.9033 4.58594C88.1533 4.92188 88.4853 5.24219 88.8994 5.54688C89.3134 5.84375 89.7822 6.13281 90.3056 6.41406C90.8369 6.69531 91.3759 6.98047 91.9228 7.26953C92.4697 7.55859 93.0048 7.85938 93.5283 8.17188C94.0595 8.48438 94.5322 8.82812 94.9463 9.20312C95.3603 9.57031 95.6923 9.97656 95.9423 10.4219C96.1923 10.8594 96.3173 11.3516 96.3173 11.8984C96.3173 12.5156 96.2002 13.0977 95.9658 13.6445C95.7314 14.1836 95.3798 14.6562 94.9111 15.0625C94.4423 15.4609 93.8603 15.7773 93.165 16.0117C92.4697 16.2461 91.6611 16.3633 90.7392 16.3633C89.9892 16.3633 89.3213 16.2812 88.7353 16.1172C88.1494 15.9531 87.6298 15.7148 87.1767 15.4023C86.7314 15.0898 86.3486 14.7109 86.0283 14.2656C85.708 13.8125 85.4463 13.2969 85.2431 12.7188L86.6377 12.1445C86.8017 12.6523 87.0205 13.1055 87.2939 13.5039C87.5752 13.9023 87.8994 14.2422 88.2666 14.5234C88.6338 14.7969 89.04 15.0078 89.4853 15.1562C89.9384 15.3047 90.4189 15.3789 90.9267 15.3789ZM105.516 15.3789C105.899 15.3789 106.278 15.3281 106.653 15.2266C107.028 15.1172 107.364 14.9609 107.661 14.7578C107.958 14.5469 108.196 14.293 108.375 13.9961C108.555 13.6914 108.645 13.3398 108.645 12.9414C108.645 12.4648 108.52 12.043 108.27 11.6758C108.028 11.3008 107.708 10.9609 107.309 10.6562C106.911 10.3438 106.454 10.0508 105.938 9.77734C105.43 9.50391 104.911 9.23047 104.379 8.95703C103.848 8.68359 103.325 8.39844 102.809 8.10156C102.301 7.79688 101.848 7.46094 101.45 7.09375C101.051 6.71875 100.727 6.30469 100.477 5.85156C100.235 5.39062 100.114 4.86328 100.114 4.26953C100.114 3.67578 100.223 3.125 100.442 2.61719C100.668 2.10938 100.997 1.67188 101.426 1.30469C101.856 0.929688 102.383 0.636719 103.008 0.425781C103.641 0.214844 104.364 0.109375 105.176 0.109375C105.911 0.109375 106.567 0.1875 107.145 0.34375C107.723 0.5 108.231 0.730469 108.668 1.03516C109.106 1.33984 109.477 1.71484 109.782 2.16016C110.086 2.60547 110.333 3.12109 110.52 3.70703L109.184 4.31641C109.028 3.83984 108.829 3.40625 108.586 3.01562C108.344 2.61719 108.055 2.27734 107.719 1.99609C107.383 1.71484 106.993 1.5 106.547 1.35156C106.11 1.19531 105.614 1.11719 105.059 1.11719C104.567 1.11719 104.137 1.1875 103.77 1.32812C103.403 1.46094 103.094 1.64062 102.844 1.86719C102.602 2.08594 102.418 2.33594 102.293 2.61719C102.176 2.89062 102.118 3.17188 102.118 3.46094C102.118 3.86719 102.243 4.24219 102.493 4.58594C102.743 4.92188 103.075 5.24219 103.489 5.54688C103.903 5.84375 104.372 6.13281 104.895 6.41406C105.426 6.69531 105.965 6.98047 106.512 7.26953C107.059 7.55859 107.594 7.85938 108.118 8.17188C108.649 8.48438 109.122 8.82812 109.536 9.20312C109.95 9.57031 110.282 9.97656 110.532 10.4219C110.782 10.8594 110.907 11.3516 110.907 11.8984C110.907 12.5156 110.79 13.0977 110.555 13.6445C110.321 14.1836 109.969 14.6562 109.5 15.0625C109.032 15.4609 108.45 15.7773 107.754 16.0117C107.059 16.2461 106.25 16.3633 105.329 16.3633C104.579 16.3633 103.911 16.2812 103.325 16.1172C102.739 15.9531 102.219 15.7148 101.766 15.4023C101.321 15.0898 100.938 14.7109 100.618 14.2656C100.297 13.8125 100.036 13.2969 99.8325 12.7188L101.227 12.1445C101.391 12.6523 101.61 13.1055 101.883 13.5039C102.165 13.9023 102.489 14.2422 102.856 14.5234C103.223 14.7969 103.629 15.0078 104.075 15.1562C104.528 15.3047 105.008 15.3789 105.516 15.3789ZM117.48 8.28906C117.48 9.375 117.645 10.3516 117.973 11.2188C118.301 12.0781 118.75 12.8086 119.32 13.4102C119.898 14.0039 120.578 14.4609 121.359 14.7812C122.141 15.0938 122.988 15.25 123.902 15.25C124.449 15.25 124.977 15.1445 125.484 14.9336C125.992 14.7227 126.461 14.4492 126.891 14.1133C127.328 13.7695 127.719 13.3867 128.062 12.9648C128.406 12.5352 128.688 12.1016 128.906 11.6641L130.008 12.3672C129.688 12.8906 129.309 13.3945 128.871 13.8789C128.434 14.3555 127.926 14.7812 127.348 15.1562C126.777 15.5234 126.129 15.8164 125.402 16.0352C124.684 16.2539 123.879 16.3633 122.988 16.3633C121.699 16.3633 120.527 16.1484 119.473 15.7188C118.426 15.2891 117.527 14.707 116.777 13.9727C116.027 13.2383 115.445 12.3828 115.031 11.4062C114.625 10.4219 114.422 9.38281 114.422 8.28906C114.422 7.5625 114.516 6.85547 114.703 6.16797C114.891 5.47266 115.16 4.82422 115.512 4.22266C115.871 3.61328 116.305 3.05859 116.812 2.55859C117.328 2.05078 117.906 1.61719 118.547 1.25781C119.195 0.890625 119.902 0.609375 120.668 0.414062C121.434 0.210938 122.25 0.109375 123.117 0.109375C123.945 0.109375 124.707 0.222656 125.402 0.449219C126.105 0.667969 126.742 0.960938 127.312 1.32812C127.891 1.69531 128.402 2.12109 128.848 2.60547C129.301 3.08203 129.688 3.58203 130.008 4.10547L128.871 4.85547C128.223 3.59766 127.496 2.67969 126.691 2.10156C125.887 1.51562 124.961 1.22266 123.914 1.22266C123.016 1.22266 122.176 1.38672 121.395 1.71484C120.613 2.04297 119.93 2.51172 119.344 3.12109C118.766 3.73047 118.309 4.47266 117.973 5.34766C117.645 6.21484 117.48 7.19531 117.48 8.28906ZM136.746 8.54688V16H134.132V0.460938H136.746V7.53906H144.55V0.460938H147.164V16H144.55V8.54688H136.746ZM157.968 0.109375L165.28 16H162.62L160.253 10.8203H153.585L151.136 16H149.823L157.312 0.109375H157.968ZM154.042 9.8125H159.773L156.948 3.66016L154.042 9.8125ZM180.139 0.460938V1.46875H174.514V16H171.901V1.46875H166.276V0.460938H180.139ZM183.174 0.460938H184.639L194.822 11.8281H194.94V0.460938H196.088V16.3633H195.479L184.451 3.73047H184.357V16H183.174V0.460938ZM208.662 16.3633C207.459 16.3633 206.334 16.1484 205.287 15.7188C204.248 15.2891 203.341 14.7031 202.568 13.9609C201.802 13.2109 201.197 12.3398 200.752 11.3477C200.314 10.3477 200.095 9.28125 200.095 8.14844C200.095 7.40625 200.193 6.69141 200.388 6.00391C200.591 5.31641 200.877 4.67578 201.244 4.08203C201.611 3.48828 202.052 2.94922 202.568 2.46484C203.091 1.97266 203.67 1.55469 204.302 1.21094C204.935 0.859375 205.619 0.589844 206.353 0.402344C207.088 0.207031 207.857 0.109375 208.662 0.109375C209.466 0.109375 210.236 0.207031 210.97 0.402344C211.705 0.589844 212.388 0.859375 213.021 1.21094C213.662 1.55469 214.24 1.97266 214.755 2.46484C215.271 2.94922 215.713 3.48828 216.08 4.08203C216.455 4.67578 216.74 5.31641 216.935 6.00391C217.138 6.69141 217.24 7.40625 217.24 8.14844C217.24 8.89844 217.138 9.625 216.935 10.3281C216.74 11.0234 216.455 11.6758 216.08 12.2852C215.713 12.8945 215.271 13.4492 214.755 13.9492C214.24 14.4492 213.662 14.8789 213.021 15.2383C212.388 15.5977 211.705 15.875 210.97 16.0703C210.236 16.2656 209.466 16.3633 208.662 16.3633ZM208.662 15.5898C209.552 15.5898 210.338 15.4062 211.017 15.0391C211.705 14.6641 212.283 14.1445 212.752 13.4805C213.22 12.8164 213.572 12.0312 213.806 11.125C214.048 10.2188 214.17 9.22656 214.17 8.14844C214.17 7.07812 214.048 6.09766 213.806 5.20703C213.572 4.31641 213.22 3.55078 212.752 2.91016C212.283 2.26172 211.705 1.76172 211.017 1.41016C210.338 1.05078 209.552 0.871094 208.662 0.871094C207.755 0.871094 206.959 1.05078 206.271 1.41016C205.591 1.76172 205.017 2.26172 204.548 2.91016C204.088 3.55078 203.74 4.31641 203.505 5.20703C203.271 6.09766 203.154 7.07812 203.154 8.14844C203.154 9.22656 203.271 10.2188 203.505 11.125C203.74 12.0312 204.088 12.8164 204.548 13.4805C205.017 14.1445 205.591 14.6641 206.271 15.0391C206.959 15.4062 207.755 15.5898 208.662 15.5898ZM221.927 0.460938L227.798 12.8242L233.247 0.460938H234.489L227.435 16.3633H226.755L219.173 0.460938H221.927ZM242.223 15.3789C242.606 15.3789 242.985 15.3281 243.36 15.2266C243.735 15.1172 244.071 14.9609 244.368 14.7578C244.665 14.5469 244.903 14.293 245.083 13.9961C245.262 13.6914 245.352 13.3398 245.352 12.9414C245.352 12.4648 245.227 12.043 244.977 11.6758C244.735 11.3008 244.415 10.9609 244.016 10.6562C243.618 10.3438 243.161 10.0508 242.645 9.77734C242.137 9.50391 241.618 9.23047 241.087 8.95703C240.555 8.68359 240.032 8.39844 239.516 8.10156C239.008 7.79688 238.555 7.46094 238.157 7.09375C237.758 6.71875 237.434 6.30469 237.184 5.85156C236.942 5.39062 236.821 4.86328 236.821 4.26953C236.821 3.67578 236.93 3.125 237.149 2.61719C237.376 2.10938 237.704 1.67188 238.133 1.30469C238.563 0.929688 239.09 0.636719 239.715 0.425781C240.348 0.214844 241.071 0.109375 241.883 0.109375C242.618 0.109375 243.274 0.1875 243.852 0.34375C244.43 0.5 244.938 0.730469 245.376 1.03516C245.813 1.33984 246.184 1.71484 246.489 2.16016C246.794 2.60547 247.04 3.12109 247.227 3.70703L245.891 4.31641C245.735 3.83984 245.536 3.40625 245.294 3.01562C245.051 2.61719 244.762 2.27734 244.426 1.99609C244.09 1.71484 243.7 1.5 243.255 1.35156C242.817 1.19531 242.321 1.11719 241.766 1.11719C241.274 1.11719 240.844 1.1875 240.477 1.32812C240.11 1.46094 239.801 1.64062 239.551 1.86719C239.309 2.08594 239.126 2.33594 239.001 2.61719C238.883 2.89062 238.825 3.17188 238.825 3.46094C238.825 3.86719 238.95 4.24219 239.2 4.58594C239.45 4.92188 239.782 5.24219 240.196 5.54688C240.61 5.84375 241.079 6.13281 241.602 6.41406C242.133 6.69531 242.673 6.98047 243.219 7.26953C243.766 7.55859 244.301 7.85938 244.825 8.17188C245.356 8.48438 245.829 8.82812 246.243 9.20312C246.657 9.57031 246.989 9.97656 247.239 10.4219C247.489 10.8594 247.614 11.3516 247.614 11.8984C247.614 12.5156 247.497 13.0977 247.262 13.6445C247.028 14.1836 246.676 14.6562 246.208 15.0625C245.739 15.4609 245.157 15.7773 244.462 16.0117C243.766 16.2461 242.958 16.3633 242.036 16.3633C241.286 16.3633 240.618 16.2812 240.032 16.1172C239.446 15.9531 238.926 15.7148 238.473 15.4023C238.028 15.0898 237.645 14.7109 237.325 14.2656C237.005 13.8125 236.743 13.2969 236.54 12.7188L237.934 12.1445C238.098 12.6523 238.317 13.1055 238.59 13.5039C238.872 13.9023 239.196 14.2422 239.563 14.5234C239.93 14.7969 240.337 15.0078 240.782 15.1562C241.235 15.3047 241.715 15.3789 242.223 15.3789ZM252.184 13.8906C252.356 13.8906 252.52 13.9258 252.676 13.9961C252.832 14.0586 252.969 14.1445 253.086 14.2539C253.203 14.3633 253.293 14.4961 253.356 14.6523C253.426 14.8008 253.461 14.957 253.461 15.1211C253.461 15.3008 253.426 15.4648 253.356 15.6133C253.293 15.7617 253.203 15.8906 253.086 16C252.969 16.1172 252.832 16.207 252.676 16.2695C252.52 16.332 252.356 16.3633 252.184 16.3633C252.004 16.3633 251.836 16.332 251.68 16.2695C251.524 16.207 251.387 16.1172 251.27 16C251.152 15.8906 251.059 15.7617 250.988 15.6133C250.926 15.4648 250.895 15.3008 250.895 15.1211C250.895 14.957 250.926 14.8008 250.988 14.6523C251.059 14.4961 251.152 14.3633 251.27 14.2539C251.387 14.1445 251.524 14.0586 251.68 13.9961C251.836 13.9258 252.004 13.8906 252.184 13.8906ZM30.5484 50V36.8516H27.9352V36.1836C28.8883 36.1836 29.65 36.0039 30.2203 35.6445C30.7906 35.2852 31.232 34.7734 31.5445 34.1094H32.7516V50H30.5484ZM43.38 49.4258C43.7003 49.4258 43.9972 49.3789 44.2706 49.2852C44.5441 49.1836 44.7784 49.0508 44.9738 48.8867C45.1769 48.7227 45.3331 48.5352 45.4425 48.3242C45.5519 48.1055 45.6066 47.8828 45.6066 47.6562C45.6066 47.2891 45.5128 46.9688 45.3253 46.6953C45.1456 46.4219 44.9034 46.1797 44.5988 45.9688C44.3019 45.75 43.962 45.5508 43.5792 45.3711C43.1964 45.1914 42.8058 45.0078 42.4073 44.8203C42.0089 44.625 41.6183 44.4219 41.2355 44.2109C40.8527 43.9922 40.5089 43.7383 40.2042 43.4492C39.9073 43.1602 39.6652 42.8281 39.4777 42.4531C39.298 42.0703 39.2081 41.625 39.2081 41.1172C39.2081 40.6406 39.3097 40.1992 39.5128 39.793C39.7159 39.3789 39.9972 39.0234 40.3566 38.7266C40.7238 38.4297 41.1573 38.1992 41.6573 38.0352C42.1573 37.8633 42.7042 37.7773 43.298 37.7773C43.6964 37.7773 44.0675 37.8047 44.4113 37.8594C44.755 37.9141 45.0909 38.0195 45.4191 38.1758C45.755 38.332 46.087 38.5586 46.4152 38.8555C46.7433 39.1445 47.0909 39.5234 47.4581 39.9922L46.5792 40.7773C46.1261 40.0352 45.6183 39.4844 45.0558 39.125C44.5011 38.7578 43.9073 38.5742 43.2745 38.5742C42.9308 38.5742 42.6183 38.6172 42.337 38.7031C42.0558 38.7812 41.8136 38.8945 41.6105 39.043C41.4152 39.1836 41.2589 39.3516 41.1417 39.5469C41.0323 39.7422 40.9777 39.9492 40.9777 40.168C40.9777 40.5273 41.0753 40.8398 41.2706 41.1055C41.4738 41.3711 41.7394 41.6133 42.0675 41.832C42.3956 42.043 42.7667 42.2383 43.1808 42.418C43.6027 42.5977 44.0284 42.7812 44.4581 42.9688C44.8956 43.1562 45.3214 43.3594 45.7355 43.5781C46.1573 43.7969 46.5323 44.0508 46.8605 44.3398C47.1886 44.6211 47.4503 44.9492 47.6456 45.3242C47.8488 45.6992 47.9503 46.1367 47.9503 46.6367C47.9503 47.1445 47.8566 47.6211 47.6691 48.0664C47.4816 48.5039 47.1964 48.8867 46.8136 49.2148C46.4386 49.5352 45.9659 49.7891 45.3956 49.9766C44.8253 50.1641 44.1534 50.2578 43.38 50.2578C43.0284 50.2578 42.6652 50.2305 42.2902 50.1758C41.923 50.1211 41.5519 50.0156 41.1769 49.8594C40.8019 49.6953 40.4269 49.4688 40.0519 49.1797C39.6769 48.8906 39.3097 48.5117 38.9503 48.043L39.923 47.1641C40.212 47.5703 40.4894 47.918 40.755 48.207C41.0206 48.4883 41.2902 48.7227 41.5636 48.9102C41.8448 49.0898 42.13 49.2227 42.4191 49.3086C42.7159 49.3867 43.0363 49.4258 43.38 49.4258ZM54.3366 33.9219H55.0163V38H57.6881V39.0195H55.0163V47.4688C55.0163 47.6484 55.0475 47.8164 55.11 47.9727C55.1803 48.1289 55.2702 48.2656 55.3795 48.3828C55.4967 48.5 55.6334 48.5938 55.7897 48.6641C55.9459 48.7266 56.1178 48.7578 56.3053 48.7578C56.5709 48.7578 56.8131 48.6914 57.0319 48.5586C57.2506 48.4258 57.442 48.2617 57.6061 48.0664L58.2038 48.4648C57.8756 49.0195 57.4498 49.457 56.9264 49.7773C56.403 50.0977 55.7545 50.2578 54.9811 50.2578C54.5827 50.2578 54.235 50.1875 53.9381 50.0469C53.6413 49.9141 53.3952 49.7266 53.1998 49.4844C53.0123 49.2344 52.8717 48.9414 52.778 48.6055C52.6842 48.2617 52.6373 47.8828 52.6373 47.4688V39.0195H50.5514V38.5742L52.6373 38V34.5898L54.3366 33.9219ZM73.32 34.1094L80.6325 50H77.9723L75.6052 44.8203H68.9372L66.488 50H65.1755L72.6637 34.1094H73.32ZM69.3942 43.8125H75.1247L72.3005 37.6602L69.3942 43.8125ZM83.2805 34.4609H84.7453L94.9289 45.8281H95.0461V34.4609H96.1945V50.3633H95.5852L84.5578 37.7305H84.4641V50H83.2805V34.4609ZM100.893 34.4609H102.358L112.542 45.8281H112.659V34.4609H113.807V50.3633H113.198L102.171 37.7305H102.077V50H100.893V34.4609ZM118.506 34.4609H121.119V50H118.506V34.4609ZM126.521 34.4609L132.392 46.8242L137.842 34.4609H139.084L132.029 50.3633H131.349L123.767 34.4609H126.521ZM152.536 34.4609V35.4688H144.345V41.0234H149.829V42.0312H144.345V48.9922H152.536V50H141.732V34.4609H152.536ZM156.087 34.4609H161.477C162.407 34.4609 163.223 34.5625 163.927 34.7656C164.63 34.9609 165.216 35.2383 165.684 35.5977C166.153 35.957 166.505 36.3867 166.739 36.8867C166.981 37.3789 167.102 37.918 167.102 38.5039C167.102 38.9883 167.009 39.4414 166.821 39.8633C166.641 40.2852 166.384 40.668 166.048 41.0117C165.72 41.3477 165.321 41.6406 164.852 41.8906C164.384 42.1328 163.868 42.3242 163.305 42.4648L168.966 50H165.93L160.528 42.6992H158.7V50H156.087V34.4609ZM158.7 41.9141H160.212C160.798 41.9141 161.337 41.8359 161.829 41.6797C162.329 41.5234 162.759 41.3047 163.118 41.0234C163.485 40.7344 163.77 40.3867 163.973 39.9805C164.177 39.5742 164.278 39.1172 164.278 38.6094C164.278 38.1406 164.196 37.7109 164.032 37.3203C163.876 36.9297 163.649 36.5977 163.352 36.3242C163.063 36.043 162.716 35.8242 162.309 35.668C161.911 35.5117 161.473 35.4336 160.997 35.4336H158.7V41.9141ZM176.653 49.3789C177.035 49.3789 177.414 49.3281 177.789 49.2266C178.164 49.1172 178.5 48.9609 178.797 48.7578C179.094 48.5469 179.332 48.293 179.512 47.9961C179.692 47.6914 179.782 47.3398 179.782 46.9414C179.782 46.4648 179.657 46.043 179.407 45.6758C179.164 45.3008 178.844 44.9609 178.446 44.6562C178.047 44.3438 177.59 44.0508 177.075 43.7773C176.567 43.5039 176.047 43.2305 175.516 42.957C174.985 42.6836 174.461 42.3984 173.946 42.1016C173.438 41.7969 172.985 41.4609 172.586 41.0938C172.188 40.7188 171.864 40.3047 171.614 39.8516C171.371 39.3906 171.25 38.8633 171.25 38.2695C171.25 37.6758 171.36 37.125 171.578 36.6172C171.805 36.1094 172.133 35.6719 172.563 35.3047C172.992 34.9297 173.52 34.6367 174.145 34.4258C174.778 34.2148 175.5 34.1094 176.313 34.1094C177.047 34.1094 177.703 34.1875 178.282 34.3438C178.86 34.5 179.367 34.7305 179.805 35.0352C180.242 35.3398 180.614 35.7148 180.918 36.1602C181.223 36.6055 181.469 37.1211 181.657 37.707L180.321 38.3164C180.164 37.8398 179.965 37.4062 179.723 37.0156C179.481 36.6172 179.192 36.2773 178.856 35.9961C178.52 35.7148 178.129 35.5 177.684 35.3516C177.246 35.1953 176.75 35.1172 176.196 35.1172C175.703 35.1172 175.274 35.1875 174.907 35.3281C174.539 35.4609 174.231 35.6406 173.981 35.8672C173.739 36.0859 173.555 36.3359 173.43 36.6172C173.313 36.8906 173.254 37.1719 173.254 37.4609C173.254 37.8672 173.379 38.2422 173.629 38.5859C173.879 38.9219 174.211 39.2422 174.625 39.5469C175.039 39.8438 175.508 40.1328 176.032 40.4141C176.563 40.6953 177.102 40.9805 177.649 41.2695C178.196 41.5586 178.731 41.8594 179.254 42.1719C179.785 42.4844 180.258 42.8281 180.672 43.2031C181.086 43.5703 181.418 43.9766 181.668 44.4219C181.918 44.8594 182.043 45.3516 182.043 45.8984C182.043 46.5156 181.926 47.0977 181.692 47.6445C181.457 48.1836 181.106 48.6562 180.637 49.0625C180.168 49.4609 179.586 49.7773 178.891 50.0117C178.196 50.2461 177.387 50.3633 176.465 50.3633C175.715 50.3633 175.047 50.2812 174.461 50.1172C173.875 49.9531 173.356 49.7148 172.903 49.4023C172.457 49.0898 172.075 48.7109 171.754 48.2656C171.434 47.8125 171.172 47.2969 170.969 46.7188L172.364 46.1445C172.528 46.6523 172.746 47.1055 173.02 47.5039C173.301 47.9023 173.625 48.2422 173.992 48.5234C174.36 48.7969 174.766 49.0078 175.211 49.1562C175.664 49.3047 176.145 49.3789 176.653 49.3789ZM192.238 34.1094L199.551 50H196.89L194.523 44.8203H187.855L185.406 50H184.094L191.582 34.1094H192.238ZM188.312 43.8125H194.043L191.219 37.6602L188.312 43.8125ZM202.199 34.4609H207.589C208.519 34.4609 209.335 34.5625 210.038 34.7656C210.742 34.9609 211.328 35.2383 211.796 35.5977C212.265 35.957 212.617 36.3867 212.851 36.8867C213.093 37.3789 213.214 37.918 213.214 38.5039C213.214 38.9883 213.12 39.4414 212.933 39.8633C212.753 40.2852 212.495 40.668 212.16 41.0117C211.831 41.3477 211.433 41.6406 210.964 41.8906C210.495 42.1328 209.98 42.3242 209.417 42.4648L215.078 50H212.042L206.64 42.6992H204.812V50H202.199V34.4609ZM204.812 41.9141H206.324C206.91 41.9141 207.449 41.8359 207.941 41.6797C208.441 41.5234 208.87 41.3047 209.23 41.0234C209.597 40.7344 209.882 40.3867 210.085 39.9805C210.288 39.5742 210.39 39.1172 210.39 38.6094C210.39 38.1406 210.308 37.7109 210.144 37.3203C209.988 36.9297 209.761 36.5977 209.464 36.3242C209.175 36.043 208.828 35.8242 208.421 35.668C208.023 35.5117 207.585 35.4336 207.109 35.4336H204.812V41.9141ZM218.265 34.4609L223.655 42.3359L229.022 34.4609H230.44L224.417 43.2852V50H221.804V43.5312L215.593 34.4609H218.265Z" fill="black"/>
</svg>
